<svg width="358" height="358" viewBox="0 0 358 358" fill="none" xmlns="http://www.w3.org/2000/svg">
<g filter="url(#filter0_dd_528_14)">
<circle cx="179" cy="175" r="175" fill="white"/>
</g>
<path d="M113.83 180.303C113.83 179.846 113.76 179.436 113.619 179.072C113.49 178.697 113.244 178.357 112.881 178.053C112.518 177.736 112.008 177.426 111.352 177.121C110.695 176.816 109.846 176.5 108.803 176.172C107.643 175.797 106.541 175.375 105.498 174.906C104.467 174.438 103.553 173.893 102.756 173.271C101.971 172.639 101.35 171.906 100.893 171.074C100.447 170.242 100.225 169.275 100.225 168.174C100.225 167.107 100.459 166.141 100.928 165.273C101.396 164.395 102.053 163.645 102.896 163.023C103.74 162.391 104.736 161.904 105.885 161.564C107.045 161.225 108.316 161.055 109.699 161.055C111.586 161.055 113.232 161.395 114.639 162.074C116.045 162.754 117.135 163.686 117.908 164.869C118.693 166.053 119.086 167.406 119.086 168.93H113.848C113.848 168.18 113.689 167.523 113.373 166.961C113.068 166.387 112.6 165.936 111.967 165.607C111.346 165.279 110.561 165.115 109.611 165.115C108.697 165.115 107.936 165.256 107.326 165.537C106.717 165.807 106.26 166.176 105.955 166.645C105.65 167.102 105.498 167.617 105.498 168.191C105.498 168.625 105.604 169.018 105.814 169.369C106.037 169.721 106.365 170.049 106.799 170.354C107.232 170.658 107.766 170.945 108.398 171.215C109.031 171.484 109.764 171.748 110.596 172.006C111.99 172.428 113.215 172.902 114.27 173.43C115.336 173.957 116.227 174.549 116.941 175.205C117.656 175.861 118.195 176.605 118.559 177.438C118.922 178.27 119.104 179.213 119.104 180.268C119.104 181.381 118.887 182.377 118.453 183.256C118.02 184.135 117.393 184.879 116.572 185.488C115.752 186.098 114.773 186.561 113.637 186.877C112.5 187.193 111.229 187.352 109.822 187.352C108.557 187.352 107.309 187.188 106.078 186.859C104.848 186.52 103.729 186.01 102.721 185.33C101.725 184.65 100.928 183.783 100.33 182.729C99.7324 181.674 99.4336 180.426 99.4336 178.984H104.725C104.725 179.781 104.848 180.455 105.094 181.006C105.34 181.557 105.686 182.002 106.131 182.342C106.588 182.682 107.127 182.928 107.748 183.08C108.381 183.232 109.072 183.309 109.822 183.309C110.736 183.309 111.486 183.18 112.072 182.922C112.67 182.664 113.109 182.307 113.391 181.85C113.684 181.393 113.83 180.877 113.83 180.303ZM134.133 161.406V187H128.877V161.406H134.133ZM142.008 161.406V165.537H121.125V161.406H142.008ZM165.545 173.605V174.818C165.545 176.764 165.281 178.51 164.754 180.057C164.227 181.604 163.482 182.922 162.521 184.012C161.561 185.09 160.412 185.916 159.076 186.49C157.752 187.064 156.281 187.352 154.664 187.352C153.059 187.352 151.588 187.064 150.252 186.49C148.928 185.916 147.779 185.09 146.807 184.012C145.834 182.922 145.078 181.604 144.539 180.057C144.012 178.51 143.748 176.764 143.748 174.818V173.605C143.748 171.648 144.012 169.902 144.539 168.367C145.066 166.82 145.811 165.502 146.771 164.412C147.744 163.322 148.893 162.49 150.217 161.916C151.553 161.342 153.023 161.055 154.629 161.055C156.246 161.055 157.717 161.342 159.041 161.916C160.377 162.49 161.525 163.322 162.486 164.412C163.459 165.502 164.209 166.82 164.736 168.367C165.275 169.902 165.545 171.648 165.545 173.605ZM160.219 174.818V173.57C160.219 172.211 160.096 171.016 159.85 169.984C159.604 168.953 159.24 168.086 158.76 167.383C158.279 166.68 157.693 166.152 157.002 165.801C156.311 165.438 155.52 165.256 154.629 165.256C153.738 165.256 152.947 165.438 152.256 165.801C151.576 166.152 150.996 166.68 150.516 167.383C150.047 168.086 149.689 168.953 149.443 169.984C149.197 171.016 149.074 172.211 149.074 173.57V174.818C149.074 176.166 149.197 177.361 149.443 178.404C149.689 179.436 150.053 180.309 150.533 181.023C151.014 181.727 151.6 182.26 152.291 182.623C152.982 182.986 153.773 183.168 154.664 183.168C155.555 183.168 156.346 182.986 157.037 182.623C157.729 182.26 158.309 181.727 158.777 181.023C159.246 180.309 159.604 179.436 159.85 178.404C160.096 177.361 160.219 176.166 160.219 174.818ZM169.342 161.406H178.887C180.844 161.406 182.525 161.699 183.932 162.285C185.35 162.871 186.439 163.738 187.201 164.887C187.963 166.035 188.344 167.447 188.344 169.123C188.344 170.494 188.109 171.672 187.641 172.656C187.184 173.629 186.533 174.443 185.689 175.1C184.857 175.744 183.879 176.26 182.754 176.646L181.084 177.525H172.787L172.752 173.412H178.922C179.848 173.412 180.615 173.248 181.225 172.92C181.834 172.592 182.291 172.135 182.596 171.549C182.912 170.963 183.07 170.283 183.07 169.51C183.07 168.689 182.918 167.98 182.613 167.383C182.309 166.785 181.846 166.328 181.225 166.012C180.604 165.695 179.824 165.537 178.887 165.537H174.615V187H169.342V161.406ZM183.65 187L177.814 175.592L183.387 175.557L189.293 186.754V187H183.65ZM202.811 165.783L195.85 187H190.242L199.752 161.406H203.32L202.811 165.783ZM208.594 187L201.615 165.783L201.053 161.406H204.656L214.219 187H208.594ZM208.277 177.473V181.604H194.76V177.473H208.277ZM236.561 173.623V183.766C236.162 184.246 235.547 184.768 234.715 185.33C233.883 185.881 232.811 186.355 231.498 186.754C230.186 187.152 228.598 187.352 226.734 187.352C225.082 187.352 223.576 187.082 222.217 186.543C220.857 185.992 219.686 185.189 218.701 184.135C217.729 183.08 216.979 181.791 216.451 180.268C215.924 178.732 215.66 176.98 215.66 175.012V173.412C215.66 171.443 215.912 169.691 216.416 168.156C216.932 166.621 217.664 165.326 218.613 164.271C219.562 163.217 220.693 162.414 222.006 161.863C223.318 161.312 224.777 161.037 226.383 161.037C228.609 161.037 230.438 161.4 231.867 162.127C233.297 162.842 234.387 163.838 235.137 165.115C235.898 166.381 236.367 167.834 236.543 169.475H231.428C231.299 168.607 231.053 167.852 230.689 167.207C230.326 166.562 229.805 166.059 229.125 165.695C228.457 165.332 227.59 165.15 226.523 165.15C225.645 165.15 224.859 165.332 224.168 165.695C223.488 166.047 222.914 166.568 222.445 167.26C221.977 167.951 221.619 168.807 221.373 169.826C221.127 170.846 221.004 172.029 221.004 173.377V175.012C221.004 176.348 221.133 177.531 221.391 178.562C221.648 179.582 222.029 180.443 222.533 181.146C223.049 181.838 223.682 182.359 224.432 182.711C225.182 183.062 226.055 183.238 227.051 183.238C227.883 183.238 228.574 183.168 229.125 183.027C229.688 182.887 230.139 182.717 230.479 182.518C230.83 182.307 231.1 182.107 231.287 181.92V177.385H226.471V173.623H236.561ZM257.988 182.887V187H244.365V182.887H257.988ZM246.088 161.406V187H240.814V161.406H246.088ZM256.213 171.83V175.838H244.365V171.83H256.213ZM257.971 161.406V165.537H244.365V161.406H257.971Z" fill="#021112"/>
<path d="M179 116L304.574 149.75H53.4263L179 116Z" fill="#04686F"/>
<path d="M179 231L304.574 201H53.4263L179 231Z" fill="#04686F"/>
<path d="M225.988 285.037L208.211 259.483C207.464 258.408 206.467 257.53 205.306 256.923C204.145 256.317 202.855 256 201.545 256H155.897C154.587 256 153.297 256.317 152.136 256.923C150.975 257.53 149.979 258.408 149.231 259.483L131.454 285.037C130.508 286.398 130 288.016 130 289.674V312.841C130 317.326 133.635 320.961 138.12 320.961H219.322C223.807 320.961 227.442 317.326 227.442 312.841V289.674C227.442 288.016 226.935 286.398 225.988 285.037ZM155.897 264.12H201.545L214.726 283.067H142.716L155.897 264.12ZM219.322 312.841H138.12V291.187H219.322V312.841ZM213.909 302.014C213.909 305.004 211.485 307.428 208.495 307.428C205.505 307.428 203.082 305.004 203.082 302.014C203.082 299.025 205.505 296.601 208.495 296.601C211.485 296.601 213.909 299.025 213.909 302.014ZM197.668 302.014C197.668 305.004 195.244 307.428 192.255 307.428C189.265 307.428 186.841 305.004 186.841 302.014C186.841 299.025 189.265 296.601 192.255 296.601C195.244 296.601 197.668 299.025 197.668 302.014Z" fill="#04686F"/>
<defs>
<filter id="filter0_dd_528_14" x="0" y="0" width="358" height="358" filterUnits="userSpaceOnUse" color-interpolation-filters="sRGB">
<feFlood flood-opacity="0" result="BackgroundImageFix"/>
<feColorMatrix in="SourceAlpha" type="matrix" values="0 0 0 0 0 0 0 0 0 0 0 0 0 0 0 0 0 0 127 0" result="hardAlpha"/>
<feOffset dy="4"/>
<feGaussianBlur stdDeviation="2"/>
<feComposite in2="hardAlpha" operator="out"/>
<feColorMatrix type="matrix" values="0 0 0 0 0.0156863 0 0 0 0 0.407843 0 0 0 0 0.435294 0 0 0 0.25 0"/>
<feBlend mode="normal" in2="BackgroundImageFix" result="effect1_dropShadow_528_14"/>
<feColorMatrix in="SourceAlpha" type="matrix" values="0 0 0 0 0 0 0 0 0 0 0 0 0 0 0 0 0 0 127 0" result="hardAlpha"/>
<feOffset dy="4"/>
<feGaussianBlur stdDeviation="2"/>
<feComposite in2="hardAlpha" operator="out"/>
<feColorMatrix type="matrix" values="0 0 0 0 0 0 0 0 0 0 0 0 0 0 0 0 0 0 0.25 0"/>
<feBlend mode="normal" in2="effect1_dropShadow_528_14" result="effect2_dropShadow_528_14"/>
<feBlend mode="normal" in="SourceGraphic" in2="effect2_dropShadow_528_14" result="shape"/>
</filter>
</defs>
</svg>
