<svg width="358" height="358" viewBox="0 0 358 358" fill="none" xmlns="http://www.w3.org/2000/svg">
<g filter="url(#filter0_dd_537_19)">
<circle cx="179" cy="175" r="175" fill="white"/>
</g>
<path d="M179 116L304.574 149.75H53.4263L179 116Z" fill="#04686F"/>
<path d="M179 231L304.574 201H53.4263L179 231Z" fill="#04686F"/>
<path d="M40.2734 187H34.7012L34.7363 182.887H40.2734C41.6562 182.887 42.8223 182.576 43.7715 181.955C44.7207 181.322 45.4355 180.402 45.916 179.195C46.4082 177.988 46.6543 176.529 46.6543 174.818V173.57C46.6543 172.258 46.5137 171.104 46.2324 170.107C45.9629 169.111 45.5586 168.273 45.0195 167.594C44.4805 166.914 43.8184 166.404 43.0332 166.064C42.248 165.713 41.3457 165.537 40.3262 165.537H34.5957V161.406H40.3262C42.0371 161.406 43.6016 161.699 45.0195 162.285C46.4492 162.859 47.6855 163.686 48.7285 164.764C49.7715 165.842 50.5742 167.131 51.1367 168.631C51.7109 170.119 51.998 171.777 51.998 173.605V174.818C51.998 176.635 51.7109 178.293 51.1367 179.793C50.5742 181.293 49.7715 182.582 48.7285 183.66C47.6973 184.727 46.4609 185.553 45.0195 186.139C43.5898 186.713 42.0078 187 40.2734 187ZM37.6895 161.406V187H32.416V161.406H37.6895ZM76.8535 173.605V174.818C76.8535 176.764 76.5898 178.51 76.0625 180.057C75.5352 181.604 74.791 182.922 73.8301 184.012C72.8691 185.09 71.7207 185.916 70.3848 186.49C69.0605 187.064 67.5898 187.352 65.9727 187.352C64.3672 187.352 62.8965 187.064 61.5605 186.49C60.2363 185.916 59.0879 185.09 58.1152 184.012C57.1426 182.922 56.3867 181.604 55.8477 180.057C55.3203 178.51 55.0566 176.764 55.0566 174.818V173.605C55.0566 171.648 55.3203 169.902 55.8477 168.367C56.375 166.82 57.1191 165.502 58.0801 164.412C59.0527 163.322 60.2012 162.49 61.5254 161.916C62.8613 161.342 64.332 161.055 65.9375 161.055C67.5547 161.055 69.0254 161.342 70.3496 161.916C71.6855 162.49 72.834 163.322 73.7949 164.412C74.7676 165.502 75.5176 166.82 76.0449 168.367C76.584 169.902 76.8535 171.648 76.8535 173.605ZM71.5273 174.818V173.57C71.5273 172.211 71.4043 171.016 71.1582 169.984C70.9121 168.953 70.5488 168.086 70.0684 167.383C69.5879 166.68 69.002 166.152 68.3105 165.801C67.6191 165.438 66.8281 165.256 65.9375 165.256C65.0469 165.256 64.2559 165.438 63.5645 165.801C62.8848 166.152 62.3047 166.68 61.8242 167.383C61.3555 168.086 60.998 168.953 60.752 169.984C60.5059 171.016 60.3828 172.211 60.3828 173.57V174.818C60.3828 176.166 60.5059 177.361 60.752 178.404C60.998 179.436 61.3613 180.309 61.8418 181.023C62.3223 181.727 62.9082 182.26 63.5996 182.623C64.291 182.986 65.082 183.168 65.9727 183.168C66.8633 183.168 67.6543 182.986 68.3457 182.623C69.0371 182.26 69.6172 181.727 70.0859 181.023C70.5547 180.309 70.9121 179.436 71.1582 178.404C71.4043 177.361 71.5273 176.166 71.5273 174.818ZM95.4863 178.51H100.742C100.637 180.232 100.162 181.762 99.3184 183.098C98.4863 184.434 97.3203 185.477 95.8203 186.227C94.332 186.977 92.5391 187.352 90.4414 187.352C88.8008 187.352 87.3301 187.07 86.0293 186.508C84.7285 185.934 83.6152 185.113 82.6895 184.047C81.7754 182.98 81.0781 181.691 80.5977 180.18C80.1172 178.668 79.877 176.975 79.877 175.1V173.324C79.877 171.449 80.123 169.756 80.6152 168.244C81.1191 166.721 81.834 165.426 82.7598 164.359C83.6973 163.293 84.8164 162.473 86.1172 161.898C87.418 161.324 88.8711 161.037 90.4766 161.037C92.6094 161.037 94.4082 161.424 95.873 162.197C97.3496 162.971 98.4922 164.037 99.3008 165.396C100.121 166.756 100.613 168.303 100.777 170.037H95.5039C95.4453 169.006 95.2402 168.133 94.8887 167.418C94.5371 166.691 94.0039 166.146 93.2891 165.783C92.5859 165.408 91.6484 165.221 90.4766 165.221C89.5977 165.221 88.8301 165.385 88.1738 165.713C87.5176 166.041 86.9668 166.539 86.5215 167.207C86.0762 167.875 85.7422 168.719 85.5195 169.738C85.3086 170.746 85.2031 171.93 85.2031 173.289V175.1C85.2031 176.424 85.3027 177.59 85.502 178.598C85.7012 179.594 86.0059 180.438 86.416 181.129C86.8379 181.809 87.377 182.324 88.0332 182.676C88.7012 183.016 89.5039 183.186 90.4414 183.186C91.543 183.186 92.4512 183.01 93.166 182.658C93.8809 182.307 94.4258 181.785 94.8008 181.094C95.1875 180.402 95.416 179.541 95.4863 178.51ZM118.338 161.406H123.594V178.316C123.594 180.285 123.172 181.943 122.328 183.291C121.496 184.639 120.342 185.652 118.865 186.332C117.4 187.012 115.713 187.352 113.803 187.352C111.893 187.352 110.193 187.012 108.705 186.332C107.229 185.652 106.068 184.639 105.225 183.291C104.393 181.943 103.977 180.285 103.977 178.316V161.406H109.25V178.316C109.25 179.465 109.432 180.402 109.795 181.129C110.158 181.855 110.68 182.389 111.359 182.729C112.051 183.068 112.865 183.238 113.803 183.238C114.764 183.238 115.578 183.068 116.246 182.729C116.926 182.389 117.441 181.855 117.793 181.129C118.156 180.402 118.338 179.465 118.338 178.316V161.406ZM130.344 161.406H134.809L141.383 180.197L147.957 161.406H152.422L143.176 187H139.59L130.344 161.406ZM127.936 161.406H132.383L133.191 179.723V187H127.936V161.406ZM150.383 161.406H154.848V187H149.574V179.723L150.383 161.406ZM176.645 182.887V187H163.021V182.887H176.645ZM164.744 161.406V187H159.471V161.406H164.744ZM174.869 171.83V175.838H163.021V171.83H174.869ZM176.627 161.406V165.537H163.021V161.406H176.627ZM200.551 161.406V187H195.277L184.994 169.844V187H179.721V161.406H184.994L195.295 178.58V161.406H200.551ZM216.055 161.406V187H210.799V161.406H216.055ZM223.93 161.406V165.537H203.047V161.406H223.93ZM235.443 165.783L228.482 187H222.875L232.385 161.406H235.953L235.443 165.783ZM241.227 187L234.248 165.783L233.686 161.406H237.289L246.852 187H241.227ZM240.91 177.473V181.604H227.393V177.473H240.91ZM258.488 161.406V187H253.232V161.406H258.488ZM266.363 161.406V165.537H245.48V161.406H266.363ZM274.977 161.406V187H269.721V161.406H274.977ZM300.939 173.605V174.818C300.939 176.764 300.676 178.51 300.148 180.057C299.621 181.604 298.877 182.922 297.916 184.012C296.955 185.09 295.807 185.916 294.471 186.49C293.146 187.064 291.676 187.352 290.059 187.352C288.453 187.352 286.982 187.064 285.646 186.49C284.322 185.916 283.174 185.09 282.201 184.012C281.229 182.922 280.473 181.604 279.934 180.057C279.406 178.51 279.143 176.764 279.143 174.818V173.605C279.143 171.648 279.406 169.902 279.934 168.367C280.461 166.82 281.205 165.502 282.166 164.412C283.139 163.322 284.287 162.49 285.611 161.916C286.947 161.342 288.418 161.055 290.023 161.055C291.641 161.055 293.111 161.342 294.436 161.916C295.771 162.49 296.92 163.322 297.881 164.412C298.854 165.502 299.604 166.82 300.131 168.367C300.67 169.902 300.939 171.648 300.939 173.605ZM295.613 174.818V173.57C295.613 172.211 295.49 171.016 295.244 169.984C294.998 168.953 294.635 168.086 294.154 167.383C293.674 166.68 293.088 166.152 292.396 165.801C291.705 165.438 290.914 165.256 290.023 165.256C289.133 165.256 288.342 165.438 287.65 165.801C286.971 166.152 286.391 166.68 285.91 167.383C285.441 168.086 285.084 168.953 284.838 169.984C284.592 171.016 284.469 172.211 284.469 173.57V174.818C284.469 176.166 284.592 177.361 284.838 178.404C285.084 179.436 285.447 180.309 285.928 181.023C286.408 181.727 286.994 182.26 287.686 182.623C288.377 182.986 289.168 183.168 290.059 183.168C290.949 183.168 291.74 182.986 292.432 182.623C293.123 182.26 293.703 181.727 294.172 181.023C294.641 180.309 294.998 179.436 295.244 178.404C295.49 177.361 295.613 176.166 295.613 174.818ZM325.566 161.406V187H320.293L310.01 169.844V187H304.736V161.406H310.01L320.311 178.58V161.406H325.566Z" fill="#021112"/>
<path d="M139.566 250.715C137.047 251.203 134.352 253.293 133.199 255.656C132.828 256.418 132.418 257.512 132.32 258.098C132.047 259.523 132.047 316.477 132.32 317.902C132.984 321.477 136.129 324.621 139.723 325.305C141.168 325.578 208.629 325.578 210.074 325.305C212.711 324.797 215.309 322.863 216.559 320.461C217.34 318.996 216.969 320.559 222.359 295.578C224.293 286.574 225.875 278.879 225.875 278.469C225.875 277.609 225.309 276.652 224.449 276.008L223.902 275.598H186.812H149.723L149.195 276.008C148.902 276.223 148.473 276.633 148.258 276.926C147.984 277.297 146.754 282.727 143.551 297.668C141.168 308.801 139.156 317.941 139.078 318.02C139.02 318.078 138.824 317.824 138.668 317.434C138.414 316.789 138.375 313.312 138.414 287.727C138.473 258.781 138.473 258.723 138.883 258.195C139.098 257.902 139.527 257.473 139.82 257.258C140.348 256.848 140.602 256.848 151.129 256.789L161.91 256.75L166.793 262.609C170.523 267.082 171.871 268.547 172.477 268.859C173.258 269.25 173.609 269.25 193.629 269.25C216.305 269.25 214.801 269.348 215.875 267.922C216.637 266.926 216.637 265.324 215.875 264.328C214.801 262.922 216.187 263 194.586 263L175.191 262.98L170.25 257.023C166.598 252.609 165.133 250.988 164.645 250.773C164.078 250.539 161.969 250.5 152.203 250.52C145.719 250.539 140.035 250.617 139.566 250.715ZM218.844 281.848C218.844 282.512 211.305 317.199 211.051 317.688C210.836 318.098 210.367 318.527 209.859 318.801L209.02 319.25H177.203C159.723 319.25 145.406 319.211 145.406 319.152C145.406 319.074 152.437 285.539 153.023 282.766L153.258 281.75H186.051C204.078 281.75 218.844 281.789 218.844 281.848Z" fill="#04686F"/>
<defs>
<filter id="filter0_dd_537_19" x="0" y="0" width="358" height="358" filterUnits="userSpaceOnUse" color-interpolation-filters="sRGB">
<feFlood flood-opacity="0" result="BackgroundImageFix"/>
<feColorMatrix in="SourceAlpha" type="matrix" values="0 0 0 0 0 0 0 0 0 0 0 0 0 0 0 0 0 0 127 0" result="hardAlpha"/>
<feOffset dy="4"/>
<feGaussianBlur stdDeviation="2"/>
<feComposite in2="hardAlpha" operator="out"/>
<feColorMatrix type="matrix" values="0 0 0 0 0.0156863 0 0 0 0 0.407843 0 0 0 0 0.435294 0 0 0 0.25 0"/>
<feBlend mode="normal" in2="BackgroundImageFix" result="effect1_dropShadow_537_19"/>
<feColorMatrix in="SourceAlpha" type="matrix" values="0 0 0 0 0 0 0 0 0 0 0 0 0 0 0 0 0 0 127 0" result="hardAlpha"/>
<feOffset dy="4"/>
<feGaussianBlur stdDeviation="2"/>
<feComposite in2="hardAlpha" operator="out"/>
<feColorMatrix type="matrix" values="0 0 0 0 0 0 0 0 0 0 0 0 0 0 0 0 0 0 0.25 0"/>
<feBlend mode="normal" in2="effect1_dropShadow_537_19" result="effect2_dropShadow_537_19"/>
<feBlend mode="normal" in="SourceGraphic" in2="effect2_dropShadow_537_19" result="shape"/>
</filter>
</defs>
</svg>
