<svg width="358" height="358" viewBox="0 0 358 358" fill="none" xmlns="http://www.w3.org/2000/svg">
<g filter="url(#filter0_dd_540_2)">
<circle cx="179" cy="175" r="175" fill="white"/>
</g>
<path d="M179 116L304.574 149.75H53.4263L179 116Z" fill="#04686F"/>
<path d="M179 231L304.574 201H53.4263L179 231Z" fill="#04686F"/>
<path d="M73.1875 161.406H77.6523L84.2266 180.197L90.8008 161.406H95.2656L86.0195 187H82.4336L73.1875 161.406ZM70.7793 161.406H75.2266L76.0352 179.723V187H70.7793V161.406ZM93.2266 161.406H97.6914V187H92.418V179.723L93.2266 161.406ZM123.338 173.605V174.818C123.338 176.764 123.074 178.51 122.547 180.057C122.02 181.604 121.275 182.922 120.314 184.012C119.354 185.09 118.205 185.916 116.869 186.49C115.545 187.064 114.074 187.352 112.457 187.352C110.852 187.352 109.381 187.064 108.045 186.49C106.721 185.916 105.572 185.09 104.6 184.012C103.627 182.922 102.871 181.604 102.332 180.057C101.805 178.51 101.541 176.764 101.541 174.818V173.605C101.541 171.648 101.805 169.902 102.332 168.367C102.859 166.82 103.604 165.502 104.564 164.412C105.537 163.322 106.686 162.49 108.01 161.916C109.346 161.342 110.816 161.055 112.422 161.055C114.039 161.055 115.51 161.342 116.834 161.916C118.17 162.49 119.318 163.322 120.279 164.412C121.252 165.502 122.002 166.82 122.529 168.367C123.068 169.902 123.338 171.648 123.338 173.605ZM118.012 174.818V173.57C118.012 172.211 117.889 171.016 117.643 169.984C117.396 168.953 117.033 168.086 116.553 167.383C116.072 166.68 115.486 166.152 114.795 165.801C114.104 165.438 113.312 165.256 112.422 165.256C111.531 165.256 110.74 165.438 110.049 165.801C109.369 166.152 108.789 166.68 108.309 167.383C107.84 168.086 107.482 168.953 107.236 169.984C106.99 171.016 106.867 172.211 106.867 173.57V174.818C106.867 176.166 106.99 177.361 107.236 178.404C107.482 179.436 107.846 180.309 108.326 181.023C108.807 181.727 109.393 182.26 110.084 182.623C110.775 182.986 111.566 183.168 112.457 183.168C113.348 183.168 114.139 182.986 114.83 182.623C115.521 182.26 116.102 181.727 116.57 181.023C117.039 180.309 117.396 179.436 117.643 178.404C117.889 177.361 118.012 176.166 118.012 174.818ZM147.965 161.406V187H142.691L132.408 169.844V187H127.135V161.406H132.408L142.709 178.58V161.406H147.965ZM158.16 161.406V187H152.904V161.406H158.16ZM174.016 161.406V187H168.76V161.406H174.016ZM181.891 161.406V165.537H161.008V161.406H181.891ZM205.428 173.605V174.818C205.428 176.764 205.164 178.51 204.637 180.057C204.109 181.604 203.365 182.922 202.404 184.012C201.443 185.09 200.295 185.916 198.959 186.49C197.635 187.064 196.164 187.352 194.547 187.352C192.941 187.352 191.471 187.064 190.135 186.49C188.811 185.916 187.662 185.09 186.689 184.012C185.717 182.922 184.961 181.604 184.422 180.057C183.895 178.51 183.631 176.764 183.631 174.818V173.605C183.631 171.648 183.895 169.902 184.422 168.367C184.949 166.82 185.693 165.502 186.654 164.412C187.627 163.322 188.775 162.49 190.1 161.916C191.436 161.342 192.906 161.055 194.512 161.055C196.129 161.055 197.6 161.342 198.924 161.916C200.26 162.49 201.408 163.322 202.369 164.412C203.342 165.502 204.092 166.82 204.619 168.367C205.158 169.902 205.428 171.648 205.428 173.605ZM200.102 174.818V173.57C200.102 172.211 199.979 171.016 199.732 169.984C199.486 168.953 199.123 168.086 198.643 167.383C198.162 166.68 197.576 166.152 196.885 165.801C196.193 165.438 195.402 165.256 194.512 165.256C193.621 165.256 192.83 165.438 192.139 165.801C191.459 166.152 190.879 166.68 190.398 167.383C189.93 168.086 189.572 168.953 189.326 169.984C189.08 171.016 188.957 172.211 188.957 173.57V174.818C188.957 176.166 189.08 177.361 189.326 178.404C189.572 179.436 189.936 180.309 190.416 181.023C190.896 181.727 191.482 182.26 192.174 182.623C192.865 182.986 193.656 183.168 194.547 183.168C195.438 183.168 196.229 182.986 196.92 182.623C197.611 182.26 198.191 181.727 198.66 181.023C199.129 180.309 199.486 179.436 199.732 178.404C199.979 177.361 200.102 176.166 200.102 174.818ZM209.225 161.406H218.77C220.727 161.406 222.408 161.699 223.814 162.285C225.232 162.871 226.322 163.738 227.084 164.887C227.846 166.035 228.227 167.447 228.227 169.123C228.227 170.494 227.992 171.672 227.523 172.656C227.066 173.629 226.416 174.443 225.572 175.1C224.74 175.744 223.762 176.26 222.637 176.646L220.967 177.525H212.67L212.635 173.412H218.805C219.73 173.412 220.498 173.248 221.107 172.92C221.717 172.592 222.174 172.135 222.479 171.549C222.795 170.963 222.953 170.283 222.953 169.51C222.953 168.689 222.801 167.98 222.496 167.383C222.191 166.785 221.729 166.328 221.107 166.012C220.486 165.695 219.707 165.537 218.77 165.537H214.498V187H209.225V161.406ZM223.533 187L217.697 175.592L223.27 175.557L229.176 186.754V187H223.533ZM237.895 161.406V187H232.639V161.406H237.895ZM263.664 161.406V187H258.391L248.107 169.844V187H242.834V161.406H248.107L258.408 178.58V161.406H263.664ZM288.537 173.623V183.766C288.139 184.246 287.523 184.768 286.691 185.33C285.859 185.881 284.787 186.355 283.475 186.754C282.162 187.152 280.574 187.352 278.711 187.352C277.059 187.352 275.553 187.082 274.193 186.543C272.834 185.992 271.662 185.189 270.678 184.135C269.705 183.08 268.955 181.791 268.428 180.268C267.9 178.732 267.637 176.98 267.637 175.012V173.412C267.637 171.443 267.889 169.691 268.393 168.156C268.908 166.621 269.641 165.326 270.59 164.271C271.539 163.217 272.67 162.414 273.982 161.863C275.295 161.312 276.754 161.037 278.359 161.037C280.586 161.037 282.414 161.4 283.844 162.127C285.273 162.842 286.363 163.838 287.113 165.115C287.875 166.381 288.344 167.834 288.52 169.475H283.404C283.275 168.607 283.029 167.852 282.666 167.207C282.303 166.562 281.781 166.059 281.102 165.695C280.434 165.332 279.566 165.15 278.5 165.15C277.621 165.15 276.836 165.332 276.145 165.695C275.465 166.047 274.891 166.568 274.422 167.26C273.953 167.951 273.596 168.807 273.35 169.826C273.104 170.846 272.98 172.029 272.98 173.377V175.012C272.98 176.348 273.109 177.531 273.367 178.562C273.625 179.582 274.006 180.443 274.51 181.146C275.025 181.838 275.658 182.359 276.408 182.711C277.158 183.062 278.031 183.238 279.027 183.238C279.859 183.238 280.551 183.168 281.102 183.027C281.664 182.887 282.115 182.717 282.455 182.518C282.807 182.307 283.076 182.107 283.264 181.92V177.385H278.447V173.623H288.537Z" fill="#021112"/>
<g clip-path="url(#clip0_540_2)">
<path d="M216.5 288V306.75H141.5V256.75H163.375V250.5H141.5C139.842 250.5 138.253 251.158 137.081 252.331C135.908 253.503 135.25 255.092 135.25 256.75V306.75C135.25 308.408 135.908 309.997 137.081 311.169C138.253 312.342 139.842 313 141.5 313H166.5V325.5H154V331.75H204V325.5H191.5V313H216.5C218.158 313 219.747 312.342 220.919 311.169C222.092 309.997 222.75 308.408 222.75 306.75V288H216.5ZM185.25 325.5H172.75V313H185.25V325.5Z" fill="#04686F"/>
<path d="M185.25 294.25H185.219C184.545 294.243 183.892 294.019 183.356 293.61C182.821 293.202 182.432 292.631 182.247 291.983L176.642 272.375H163.375V266.125H179C179.679 266.125 180.34 266.346 180.882 266.755C181.424 267.164 181.818 267.738 182.005 268.391L185.362 280.138L194.764 249.581C194.967 248.946 195.364 248.391 195.9 247.995C196.436 247.599 197.084 247.382 197.75 247.375C198.408 247.365 199.052 247.568 199.586 247.953C200.12 248.338 200.516 248.884 200.715 249.512L206.252 266.125H222.75V272.375H204C203.344 272.375 202.705 272.169 202.173 271.785C201.641 271.402 201.243 270.86 201.035 270.238L197.869 260.738L188.236 292.044C188.04 292.683 187.644 293.242 187.106 293.639C186.569 294.036 185.918 294.25 185.25 294.25Z" fill="#04686F"/>
</g>
<defs>
<filter id="filter0_dd_540_2" x="0" y="0" width="358" height="358" filterUnits="userSpaceOnUse" color-interpolation-filters="sRGB">
<feFlood flood-opacity="0" result="BackgroundImageFix"/>
<feColorMatrix in="SourceAlpha" type="matrix" values="0 0 0 0 0 0 0 0 0 0 0 0 0 0 0 0 0 0 127 0" result="hardAlpha"/>
<feOffset dy="4"/>
<feGaussianBlur stdDeviation="2"/>
<feComposite in2="hardAlpha" operator="out"/>
<feColorMatrix type="matrix" values="0 0 0 0 0.0156863 0 0 0 0 0.407843 0 0 0 0 0.435294 0 0 0 0.25 0"/>
<feBlend mode="normal" in2="BackgroundImageFix" result="effect1_dropShadow_540_2"/>
<feColorMatrix in="SourceAlpha" type="matrix" values="0 0 0 0 0 0 0 0 0 0 0 0 0 0 0 0 0 0 127 0" result="hardAlpha"/>
<feOffset dy="4"/>
<feGaussianBlur stdDeviation="2"/>
<feComposite in2="hardAlpha" operator="out"/>
<feColorMatrix type="matrix" values="0 0 0 0 0 0 0 0 0 0 0 0 0 0 0 0 0 0 0.25 0"/>
<feBlend mode="normal" in2="effect1_dropShadow_540_2" result="effect2_dropShadow_540_2"/>
<feBlend mode="normal" in="SourceGraphic" in2="effect2_dropShadow_540_2" result="shape"/>
</filter>
<clipPath id="clip0_540_2">
<rect width="100" height="100" fill="white" transform="translate(129 238)"/>
</clipPath>
</defs>
</svg>
