<svg width="358" height="358" viewBox="0 0 358 358" fill="none" xmlns="http://www.w3.org/2000/svg">
<g filter="url(#filter0_dd_535_2)">
<circle cx="179" cy="175" r="175" fill="white"/>
</g>
<path d="M176.986 48.0682C173.473 48.347 169.855 49.3445 166.788 50.881C162.575 53 158.963 56.1165 156.218 60.0198C155.431 61.1351 154.75 62.2937 154.062 63.7063C152.848 66.1846 152.123 68.3841 151.652 70.9864C151.274 73.0744 151.286 72.8947 151.249 81.1475L151.212 88.7373L150.462 88.7807C147.798 88.9232 145.344 89.9888 143.473 91.798C141.701 93.5204 140.704 95.4535 140.233 98.0805C140.14 98.601 140.128 100.367 140.109 117.734C140.09 130.869 140.103 137.095 140.152 137.703C140.568 143.26 144.57 147.387 150.097 147.938C150.586 147.988 158.895 148 179.465 147.988L208.151 147.963L208.833 147.827C211.255 147.349 213.095 146.389 214.719 144.747C216.553 142.895 217.618 140.522 217.848 137.783C217.934 136.767 217.928 99.9393 217.841 98.9604C217.507 95.0632 215.165 91.6183 211.67 89.8897C210.307 89.2144 208.975 88.8612 207.501 88.7745L206.788 88.7373L206.751 81.1475C206.714 72.8947 206.726 73.0744 206.348 70.9864C205.369 65.5341 202.779 60.5279 198.857 56.4944C196.522 54.0905 194.025 52.2813 191.051 50.8191C188.027 49.3321 185.115 48.5019 181.633 48.1239C180.778 48.031 177.891 47.9938 176.986 48.0682ZM182.092 51.8972C187.358 52.6097 191.968 54.8278 195.729 58.4523C199.731 62.3061 202.209 67.3247 202.916 72.969C203.058 74.1462 203.108 76.6431 203.089 82.5725L203.071 88.7373L201.23 88.7559L199.384 88.7683V82.0644C199.384 78.0991 199.359 74.9888 199.322 74.456C199.006 70.0632 197.34 66.0173 194.427 62.5911C194.192 62.3185 193.622 61.7175 193.145 61.2528C190.041 58.2107 186.156 56.2652 181.881 55.6208C180.592 55.4226 178.176 55.3792 176.893 55.5279C172.278 56.0545 168.176 58 164.88 61.2218C163.157 62.9133 161.962 64.5118 160.896 66.5626C159.62 69.0223 158.888 71.5998 158.678 74.425C158.641 74.9517 158.616 77.9628 158.616 82.0335V88.7683L156.776 88.7559L154.929 88.7373V81.5192C154.936 73.7435 154.936 73.6568 155.276 71.6617C156.435 64.8401 160.574 58.7745 166.528 55.1685C169.483 53.3779 173.046 52.1822 176.429 51.8476C176.807 51.8104 177.209 51.767 177.327 51.7546C177.445 51.7423 178.356 51.7361 179.341 51.7485C180.722 51.767 181.354 51.798 182.092 51.8972ZM180.921 59.2206C183.393 59.4808 186.02 60.4287 188.12 61.8104C189.149 62.4858 189.75 62.969 190.611 63.7993C193.498 66.5998 195.233 70.2615 195.605 74.3321C195.642 74.772 195.667 77.684 195.667 81.9033V88.7683H179H162.333V81.9033C162.333 77.684 162.358 74.772 162.395 74.3321C162.748 70.4535 164.322 66.9653 166.968 64.2206C170.605 60.4535 175.611 58.6568 180.921 59.2206ZM207.532 92.4858C209.006 92.653 210.27 93.1797 211.447 94.1276C212.773 95.1871 213.665 96.6741 214.05 98.4461C214.155 98.9356 214.161 99.9765 214.161 118.384C214.161 137.108 214.155 137.827 214.043 138.335C213.374 141.389 210.97 143.706 207.965 144.19C207.123 144.326 150.877 144.326 150.028 144.19C148.585 143.954 147.234 143.279 146.156 142.257C145.066 141.222 144.353 139.983 143.975 138.458L143.845 137.932L143.82 118.787C143.808 105.317 143.82 99.4684 143.87 99.0533C144.266 95.5898 146.962 92.8947 150.425 92.4858C151.069 92.4114 206.862 92.4114 207.532 92.4858Z" fill="#04686F"/>
<path d="M177.544 103.669C174.545 104.14 172.017 105.993 170.698 108.688C170.066 109.976 169.768 111.278 169.768 112.765C169.768 115.367 170.716 117.535 172.724 119.543L173.418 120.237L173.436 124.314C173.461 128.291 173.461 128.403 173.597 128.886C174.161 130.937 175.747 132.498 177.823 133.05C178.387 133.198 179.626 133.198 180.202 133.043C181.553 132.684 182.81 131.81 183.579 130.695C183.876 130.261 184.248 129.444 184.403 128.886C184.539 128.403 184.539 128.297 184.564 124.314L184.582 120.243L185.252 119.574C187.278 117.554 188.232 115.373 188.232 112.765C188.232 108.105 184.898 104.27 180.283 103.644C179.644 103.558 178.17 103.57 177.544 103.669ZM180.227 107.424C182.222 107.882 183.926 109.605 184.434 111.674C184.582 112.294 184.57 113.489 184.397 114.19C184 115.85 182.866 117.182 181.305 117.82L180.89 117.994L180.859 123.068C180.828 128.056 180.828 128.149 180.698 128.421C180.512 128.824 180.27 129.084 179.905 129.276C179.626 129.425 179.52 129.444 179 129.444C178.511 129.444 178.368 129.419 178.157 129.307C177.748 129.09 177.532 128.874 177.346 128.496L177.172 128.142L177.154 123.081L177.135 118.012L176.683 117.802C174.174 116.643 172.86 113.725 173.709 111.197C174.353 109.289 175.983 107.802 177.891 107.393C178.709 107.219 179.366 107.226 180.227 107.424Z" fill="#04686F"/>
<path d="M57.1875 230.094C57.1875 229.281 57.0625 228.552 56.8125 227.906C56.5833 227.24 56.1458 226.635 55.5 226.094C54.8542 225.531 53.9479 224.979 52.7812 224.438C51.6146 223.896 50.1042 223.333 48.25 222.75C46.1875 222.083 44.2292 221.333 42.375 220.5C40.5417 219.667 38.9167 218.698 37.5 217.594C36.1042 216.469 35 215.167 34.1875 213.688C33.3958 212.208 33 210.49 33 208.531C33 206.635 33.4167 204.917 34.25 203.375C35.0833 201.812 36.25 200.479 37.75 199.375C39.25 198.25 41.0208 197.385 43.0625 196.781C45.125 196.177 47.3854 195.875 49.8438 195.875C53.1979 195.875 56.125 196.479 58.625 197.688C61.125 198.896 63.0625 200.552 64.4375 202.656C65.8333 204.76 66.5312 207.167 66.5312 209.875H57.2188C57.2188 208.542 56.9375 207.375 56.375 206.375C55.8333 205.354 55 204.552 53.875 203.969C52.7708 203.385 51.375 203.094 49.6875 203.094C48.0625 203.094 46.7083 203.344 45.625 203.844C44.5417 204.323 43.7292 204.979 43.1875 205.812C42.6458 206.625 42.375 207.542 42.375 208.562C42.375 209.333 42.5625 210.031 42.9375 210.656C43.3333 211.281 43.9167 211.865 44.6875 212.406C45.4583 212.948 46.4062 213.458 47.5312 213.938C48.6562 214.417 49.9583 214.885 51.4375 215.344C53.9167 216.094 56.0938 216.938 57.9688 217.875C59.8646 218.812 61.4479 219.865 62.7188 221.031C63.9896 222.198 64.9479 223.521 65.5938 225C66.2396 226.479 66.5625 228.156 66.5625 230.031C66.5625 232.01 66.1771 233.781 65.4062 235.344C64.6354 236.906 63.5208 238.229 62.0625 239.312C60.6042 240.396 58.8646 241.219 56.8438 241.781C54.8229 242.344 52.5625 242.625 50.0625 242.625C47.8125 242.625 45.5938 242.333 43.4062 241.75C41.2188 241.146 39.2292 240.24 37.4375 239.031C35.6667 237.823 34.25 236.281 33.1875 234.406C32.125 232.531 31.5938 230.312 31.5938 227.75H41C41 229.167 41.2188 230.365 41.6562 231.344C42.0938 232.323 42.7083 233.115 43.5 233.719C44.3125 234.323 45.2708 234.76 46.375 235.031C47.5 235.302 48.7292 235.438 50.0625 235.438C51.6875 235.438 53.0208 235.208 54.0625 234.75C55.125 234.292 55.9062 233.656 56.4062 232.844C56.9271 232.031 57.1875 231.115 57.1875 230.094ZM103.469 234.688V242H79.25V234.688H103.469ZM82.3125 196.5V242H72.9375V196.5H82.3125ZM100.312 215.031V222.156H79.25V215.031H100.312ZM103.438 196.5V203.844H79.25V196.5H103.438ZM135.312 226.906H144.656C144.469 229.969 143.625 232.688 142.125 235.062C140.646 237.438 138.573 239.292 135.906 240.625C133.26 241.958 130.073 242.625 126.344 242.625C123.427 242.625 120.812 242.125 118.5 241.125C116.188 240.104 114.208 238.646 112.562 236.75C110.938 234.854 109.698 232.562 108.844 229.875C107.99 227.188 107.562 224.177 107.562 220.844V217.688C107.562 214.354 108 211.344 108.875 208.656C109.771 205.948 111.042 203.646 112.688 201.75C114.354 199.854 116.344 198.396 118.656 197.375C120.969 196.354 123.552 195.844 126.406 195.844C130.198 195.844 133.396 196.531 136 197.906C138.625 199.281 140.656 201.177 142.094 203.594C143.552 206.01 144.427 208.76 144.719 211.844H135.344C135.24 210.01 134.875 208.458 134.25 207.188C133.625 205.896 132.677 204.927 131.406 204.281C130.156 203.615 128.49 203.281 126.406 203.281C124.844 203.281 123.479 203.573 122.312 204.156C121.146 204.74 120.167 205.625 119.375 206.812C118.583 208 117.99 209.5 117.594 211.312C117.219 213.104 117.031 215.208 117.031 217.625V220.844C117.031 223.198 117.208 225.271 117.562 227.062C117.917 228.833 118.458 230.333 119.188 231.562C119.938 232.771 120.896 233.688 122.062 234.312C123.25 234.917 124.677 235.219 126.344 235.219C128.302 235.219 129.917 234.906 131.188 234.281C132.458 233.656 133.427 232.729 134.094 231.5C134.781 230.271 135.188 228.74 135.312 226.906ZM175.938 196.5H185.281V226.562C185.281 230.062 184.531 233.01 183.031 235.406C181.552 237.802 179.5 239.604 176.875 240.812C174.271 242.021 171.271 242.625 167.875 242.625C164.479 242.625 161.458 242.021 158.812 240.812C156.188 239.604 154.125 237.802 152.625 235.406C151.146 233.01 150.406 230.062 150.406 226.562V196.5H159.781V226.562C159.781 228.604 160.104 230.271 160.75 231.562C161.396 232.854 162.323 233.802 163.531 234.406C164.76 235.01 166.208 235.312 167.875 235.312C169.583 235.312 171.031 235.01 172.219 234.406C173.427 233.802 174.344 232.854 174.969 231.562C175.615 230.271 175.938 228.604 175.938 226.562V196.5ZM193 196.5H209.969C213.448 196.5 216.438 197.021 218.938 198.062C221.458 199.104 223.396 200.646 224.75 202.688C226.104 204.729 226.781 207.24 226.781 210.219C226.781 212.656 226.365 214.75 225.531 216.5C224.719 218.229 223.562 219.677 222.062 220.844C220.583 221.99 218.844 222.906 216.844 223.594L213.875 225.156H199.125L199.062 217.844H210.031C211.677 217.844 213.042 217.552 214.125 216.969C215.208 216.385 216.021 215.573 216.562 214.531C217.125 213.49 217.406 212.281 217.406 210.906C217.406 209.448 217.135 208.188 216.594 207.125C216.052 206.062 215.229 205.25 214.125 204.688C213.021 204.125 211.635 203.844 209.969 203.844H202.375V242H193V196.5ZM218.438 242L208.062 221.719L217.969 221.656L228.469 241.562V242H218.438ZM243.969 196.5V242H234.625V196.5H243.969ZM272.156 196.5V242H262.812V196.5H272.156ZM286.156 196.5V203.844H249.031V196.5H286.156ZM298.25 196.5L307.75 217.25L317.25 196.5H327.469L312.5 225.438V242H303V225.438L288 196.5H298.25Z" fill="#021112"/>
<path d="M178.5 341L283.722 266.75H73.2779L178.5 341Z" fill="#04686F"/>
<defs>
<filter id="filter0_dd_535_2" x="0" y="0" width="358" height="358" filterUnits="userSpaceOnUse" color-interpolation-filters="sRGB">
<feFlood flood-opacity="0" result="BackgroundImageFix"/>
<feColorMatrix in="SourceAlpha" type="matrix" values="0 0 0 0 0 0 0 0 0 0 0 0 0 0 0 0 0 0 127 0" result="hardAlpha"/>
<feOffset dy="4"/>
<feGaussianBlur stdDeviation="2"/>
<feComposite in2="hardAlpha" operator="out"/>
<feColorMatrix type="matrix" values="0 0 0 0 0.0156863 0 0 0 0 0.407843 0 0 0 0 0.435294 0 0 0 0.25 0"/>
<feBlend mode="normal" in2="BackgroundImageFix" result="effect1_dropShadow_535_2"/>
<feColorMatrix in="SourceAlpha" type="matrix" values="0 0 0 0 0 0 0 0 0 0 0 0 0 0 0 0 0 0 127 0" result="hardAlpha"/>
<feOffset dy="4"/>
<feGaussianBlur stdDeviation="2"/>
<feComposite in2="hardAlpha" operator="out"/>
<feColorMatrix type="matrix" values="0 0 0 0 0 0 0 0 0 0 0 0 0 0 0 0 0 0 0.25 0"/>
<feBlend mode="normal" in2="effect1_dropShadow_535_2" result="effect2_dropShadow_535_2"/>
<feBlend mode="normal" in="SourceGraphic" in2="effect2_dropShadow_535_2" result="shape"/>
</filter>
</defs>
</svg>
