<svg width="358" height="358" viewBox="0 0 358 358" fill="none" xmlns="http://www.w3.org/2000/svg">
<g filter="url(#filter0_dd_536_12)">
<circle cx="179" cy="175" r="175" fill="white"/>
</g>
<path d="M40.2734 225H34.7012L34.7363 220.887H40.2734C41.6562 220.887 42.8223 220.576 43.7715 219.955C44.7207 219.322 45.4355 218.402 45.916 217.195C46.4082 215.988 46.6543 214.529 46.6543 212.818V211.57C46.6543 210.258 46.5137 209.104 46.2324 208.107C45.9629 207.111 45.5586 206.273 45.0195 205.594C44.4805 204.914 43.8184 204.404 43.0332 204.064C42.248 203.713 41.3457 203.537 40.3262 203.537H34.5957V199.406H40.3262C42.0371 199.406 43.6016 199.699 45.0195 200.285C46.4492 200.859 47.6855 201.686 48.7285 202.764C49.7715 203.842 50.5742 205.131 51.1367 206.631C51.7109 208.119 51.998 209.777 51.998 211.605V212.818C51.998 214.635 51.7109 216.293 51.1367 217.793C50.5742 219.293 49.7715 220.582 48.7285 221.66C47.6973 222.727 46.4609 223.553 45.0195 224.139C43.5898 224.713 42.0078 225 40.2734 225ZM37.6895 199.406V225H32.416V199.406H37.6895ZM76.8535 211.605V212.818C76.8535 214.764 76.5898 216.51 76.0625 218.057C75.5352 219.604 74.791 220.922 73.8301 222.012C72.8691 223.09 71.7207 223.916 70.3848 224.49C69.0605 225.064 67.5898 225.352 65.9727 225.352C64.3672 225.352 62.8965 225.064 61.5605 224.49C60.2363 223.916 59.0879 223.09 58.1152 222.012C57.1426 220.922 56.3867 219.604 55.8477 218.057C55.3203 216.51 55.0566 214.764 55.0566 212.818V211.605C55.0566 209.648 55.3203 207.902 55.8477 206.367C56.375 204.82 57.1191 203.502 58.0801 202.412C59.0527 201.322 60.2012 200.49 61.5254 199.916C62.8613 199.342 64.332 199.055 65.9375 199.055C67.5547 199.055 69.0254 199.342 70.3496 199.916C71.6855 200.49 72.834 201.322 73.7949 202.412C74.7676 203.502 75.5176 204.82 76.0449 206.367C76.584 207.902 76.8535 209.648 76.8535 211.605ZM71.5273 212.818V211.57C71.5273 210.211 71.4043 209.016 71.1582 207.984C70.9121 206.953 70.5488 206.086 70.0684 205.383C69.5879 204.68 69.002 204.152 68.3105 203.801C67.6191 203.438 66.8281 203.256 65.9375 203.256C65.0469 203.256 64.2559 203.438 63.5645 203.801C62.8848 204.152 62.3047 204.68 61.8242 205.383C61.3555 206.086 60.998 206.953 60.752 207.984C60.5059 209.016 60.3828 210.211 60.3828 211.57V212.818C60.3828 214.166 60.5059 215.361 60.752 216.404C60.998 217.436 61.3613 218.309 61.8418 219.023C62.3223 219.727 62.9082 220.26 63.5996 220.623C64.291 220.986 65.082 221.168 65.9727 221.168C66.8633 221.168 67.6543 220.986 68.3457 220.623C69.0371 220.26 69.6172 219.727 70.0859 219.023C70.5547 218.309 70.9121 217.436 71.1582 216.404C71.4043 215.361 71.5273 214.166 71.5273 212.818ZM95.4863 216.51H100.742C100.637 218.232 100.162 219.762 99.3184 221.098C98.4863 222.434 97.3203 223.477 95.8203 224.227C94.332 224.977 92.5391 225.352 90.4414 225.352C88.8008 225.352 87.3301 225.07 86.0293 224.508C84.7285 223.934 83.6152 223.113 82.6895 222.047C81.7754 220.98 81.0781 219.691 80.5977 218.18C80.1172 216.668 79.877 214.975 79.877 213.1V211.324C79.877 209.449 80.123 207.756 80.6152 206.244C81.1191 204.721 81.834 203.426 82.7598 202.359C83.6973 201.293 84.8164 200.473 86.1172 199.898C87.418 199.324 88.8711 199.037 90.4766 199.037C92.6094 199.037 94.4082 199.424 95.873 200.197C97.3496 200.971 98.4922 202.037 99.3008 203.396C100.121 204.756 100.613 206.303 100.777 208.037H95.5039C95.4453 207.006 95.2402 206.133 94.8887 205.418C94.5371 204.691 94.0039 204.146 93.2891 203.783C92.5859 203.408 91.6484 203.221 90.4766 203.221C89.5977 203.221 88.8301 203.385 88.1738 203.713C87.5176 204.041 86.9668 204.539 86.5215 205.207C86.0762 205.875 85.7422 206.719 85.5195 207.738C85.3086 208.746 85.2031 209.93 85.2031 211.289V213.1C85.2031 214.424 85.3027 215.59 85.502 216.598C85.7012 217.594 86.0059 218.438 86.416 219.129C86.8379 219.809 87.377 220.324 88.0332 220.676C88.7012 221.016 89.5039 221.186 90.4414 221.186C91.543 221.186 92.4512 221.01 93.166 220.658C93.8809 220.307 94.4258 219.785 94.8008 219.094C95.1875 218.402 95.416 217.541 95.4863 216.51ZM118.338 199.406H123.594V216.316C123.594 218.285 123.172 219.943 122.328 221.291C121.496 222.639 120.342 223.652 118.865 224.332C117.4 225.012 115.713 225.352 113.803 225.352C111.893 225.352 110.193 225.012 108.705 224.332C107.229 223.652 106.068 222.639 105.225 221.291C104.393 219.943 103.977 218.285 103.977 216.316V199.406H109.25V216.316C109.25 217.465 109.432 218.402 109.795 219.129C110.158 219.855 110.68 220.389 111.359 220.729C112.051 221.068 112.865 221.238 113.803 221.238C114.764 221.238 115.578 221.068 116.246 220.729C116.926 220.389 117.441 219.855 117.793 219.129C118.156 218.402 118.338 217.465 118.338 216.316V199.406ZM130.344 199.406H134.809L141.383 218.197L147.957 199.406H152.422L143.176 225H139.59L130.344 199.406ZM127.936 199.406H132.383L133.191 217.723V225H127.936V199.406ZM150.383 199.406H154.848V225H149.574V217.723L150.383 199.406ZM176.645 220.887V225H163.021V220.887H176.645ZM164.744 199.406V225H159.471V199.406H164.744ZM174.869 209.83V213.838H163.021V209.83H174.869ZM176.627 199.406V203.537H163.021V199.406H176.627ZM200.551 199.406V225H195.277L184.994 207.844V225H179.721V199.406H184.994L195.295 216.58V199.406H200.551ZM216.055 199.406V225H210.799V199.406H216.055ZM223.93 199.406V203.537H203.047V199.406H223.93ZM235.443 203.783L228.482 225H222.875L232.385 199.406H235.953L235.443 203.783ZM241.227 225L234.248 203.783L233.686 199.406H237.289L246.852 225H241.227ZM240.91 215.473V219.604H227.393V215.473H240.91ZM258.488 199.406V225H253.232V199.406H258.488ZM266.363 199.406V203.537H245.48V199.406H266.363ZM274.977 199.406V225H269.721V199.406H274.977ZM300.939 211.605V212.818C300.939 214.764 300.676 216.51 300.148 218.057C299.621 219.604 298.877 220.922 297.916 222.012C296.955 223.09 295.807 223.916 294.471 224.49C293.146 225.064 291.676 225.352 290.059 225.352C288.453 225.352 286.982 225.064 285.646 224.49C284.322 223.916 283.174 223.09 282.201 222.012C281.229 220.922 280.473 219.604 279.934 218.057C279.406 216.51 279.143 214.764 279.143 212.818V211.605C279.143 209.648 279.406 207.902 279.934 206.367C280.461 204.82 281.205 203.502 282.166 202.412C283.139 201.322 284.287 200.49 285.611 199.916C286.947 199.342 288.418 199.055 290.023 199.055C291.641 199.055 293.111 199.342 294.436 199.916C295.771 200.49 296.92 201.322 297.881 202.412C298.854 203.502 299.604 204.82 300.131 206.367C300.67 207.902 300.939 209.648 300.939 211.605ZM295.613 212.818V211.57C295.613 210.211 295.49 209.016 295.244 207.984C294.998 206.953 294.635 206.086 294.154 205.383C293.674 204.68 293.088 204.152 292.396 203.801C291.705 203.438 290.914 203.256 290.023 203.256C289.133 203.256 288.342 203.438 287.65 203.801C286.971 204.152 286.391 204.68 285.91 205.383C285.441 206.086 285.084 206.953 284.838 207.984C284.592 209.016 284.469 210.211 284.469 211.57V212.818C284.469 214.166 284.592 215.361 284.838 216.404C285.084 217.436 285.447 218.309 285.928 219.023C286.408 219.727 286.994 220.26 287.686 220.623C288.377 220.986 289.168 221.168 290.059 221.168C290.949 221.168 291.74 220.986 292.432 220.623C293.123 220.26 293.703 219.727 294.172 219.023C294.641 218.309 294.998 217.436 295.244 216.404C295.49 215.361 295.613 214.166 295.613 212.818ZM325.566 199.406V225H320.293L310.01 207.844V225H304.736V199.406H310.01L320.311 216.58V199.406H325.566Z" fill="#021112"/>
<path d="M178.5 341L283.722 266.75H73.2779L178.5 341Z" fill="#04686F"/>
<path d="M139.566 54.7148C137.047 55.2031 134.352 57.293 133.199 59.6562C132.828 60.418 132.418 61.5117 132.32 62.0977C132.047 63.5234 132.047 120.477 132.32 121.902C132.984 125.477 136.129 128.621 139.723 129.305C141.168 129.578 208.629 129.578 210.074 129.305C212.711 128.797 215.309 126.863 216.559 124.461C217.34 122.996 216.969 124.559 222.359 99.5781C224.293 90.5742 225.875 82.8789 225.875 82.4688C225.875 81.6094 225.309 80.6523 224.449 80.0078L223.902 79.5977H186.812H149.723L149.195 80.0078C148.902 80.2227 148.473 80.6328 148.258 80.9258C147.984 81.2969 146.754 86.7266 143.551 101.668C141.168 112.801 139.156 121.941 139.078 122.02C139.02 122.078 138.824 121.824 138.668 121.434C138.414 120.789 138.375 117.312 138.414 91.7266C138.473 62.7812 138.473 62.7227 138.883 62.1953C139.098 61.9023 139.527 61.4727 139.82 61.2578C140.348 60.8477 140.602 60.8477 151.129 60.7891L161.91 60.75L166.793 66.6094C170.523 71.082 171.871 72.5469 172.477 72.8594C173.258 73.25 173.609 73.25 193.629 73.25C216.305 73.25 214.801 73.3477 215.875 71.9219C216.637 70.9258 216.637 69.3242 215.875 68.3281C214.801 66.9219 216.187 67 194.586 67L175.191 66.9805L170.25 61.0234C166.598 56.6094 165.133 54.9883 164.645 54.7734C164.078 54.5391 161.969 54.5 152.203 54.5195C145.719 54.5391 140.035 54.6172 139.566 54.7148ZM218.844 85.8477C218.844 86.5117 211.305 121.199 211.051 121.688C210.836 122.098 210.367 122.527 209.859 122.801L209.02 123.25H177.203C159.723 123.25 145.406 123.211 145.406 123.152C145.406 123.074 152.437 89.5391 153.023 86.7656L153.258 85.75H186.051C204.078 85.75 218.844 85.7891 218.844 85.8477Z" fill="#04686F"/>
<defs>
<filter id="filter0_dd_536_12" x="0" y="0" width="358" height="358" filterUnits="userSpaceOnUse" color-interpolation-filters="sRGB">
<feFlood flood-opacity="0" result="BackgroundImageFix"/>
<feColorMatrix in="SourceAlpha" type="matrix" values="0 0 0 0 0 0 0 0 0 0 0 0 0 0 0 0 0 0 127 0" result="hardAlpha"/>
<feOffset dy="4"/>
<feGaussianBlur stdDeviation="2"/>
<feComposite in2="hardAlpha" operator="out"/>
<feColorMatrix type="matrix" values="0 0 0 0 0.0156863 0 0 0 0 0.407843 0 0 0 0 0.435294 0 0 0 0.25 0"/>
<feBlend mode="normal" in2="BackgroundImageFix" result="effect1_dropShadow_536_12"/>
<feColorMatrix in="SourceAlpha" type="matrix" values="0 0 0 0 0 0 0 0 0 0 0 0 0 0 0 0 0 0 127 0" result="hardAlpha"/>
<feOffset dy="4"/>
<feGaussianBlur stdDeviation="2"/>
<feComposite in2="hardAlpha" operator="out"/>
<feColorMatrix type="matrix" values="0 0 0 0 0 0 0 0 0 0 0 0 0 0 0 0 0 0 0.25 0"/>
<feBlend mode="normal" in2="effect1_dropShadow_536_12" result="effect2_dropShadow_536_12"/>
<feBlend mode="normal" in="SourceGraphic" in2="effect2_dropShadow_536_12" result="shape"/>
</filter>
</defs>
</svg>
