<svg width="358" height="358" viewBox="0 0 358 358" fill="none" xmlns="http://www.w3.org/2000/svg">
<g filter="url(#filter0_dd_528_14)">
<circle cx="179" cy="175" r="175" fill="white"/>
</g>
<path d="M64.0312 239.094C64.0312 238.281 63.9062 237.552 63.6562 236.906C63.4271 236.24 62.9896 235.635 62.3438 235.094C61.6979 234.531 60.7917 233.979 59.625 233.438C58.4583 232.896 56.9479 232.333 55.0938 231.75C53.0312 231.083 51.0729 230.333 49.2188 229.5C47.3854 228.667 45.7604 227.698 44.3438 226.594C42.9479 225.469 41.8438 224.167 41.0312 222.688C40.2396 221.208 39.8438 219.49 39.8438 217.531C39.8438 215.635 40.2604 213.917 41.0938 212.375C41.9271 210.812 43.0938 209.479 44.5938 208.375C46.0938 207.25 47.8646 206.385 49.9062 205.781C51.9688 205.177 54.2292 204.875 56.6875 204.875C60.0417 204.875 62.9688 205.479 65.4688 206.688C67.9688 207.896 69.9062 209.552 71.2812 211.656C72.6771 213.76 73.375 216.167 73.375 218.875H64.0625C64.0625 217.542 63.7812 216.375 63.2188 215.375C62.6771 214.354 61.8438 213.552 60.7188 212.969C59.6146 212.385 58.2188 212.094 56.5312 212.094C54.9062 212.094 53.5521 212.344 52.4688 212.844C51.3854 213.323 50.5729 213.979 50.0312 214.812C49.4896 215.625 49.2188 216.542 49.2188 217.562C49.2188 218.333 49.4062 219.031 49.7812 219.656C50.1771 220.281 50.7604 220.865 51.5312 221.406C52.3021 221.948 53.25 222.458 54.375 222.938C55.5 223.417 56.8021 223.885 58.2812 224.344C60.7604 225.094 62.9375 225.938 64.8125 226.875C66.7083 227.812 68.2917 228.865 69.5625 230.031C70.8333 231.198 71.7917 232.521 72.4375 234C73.0833 235.479 73.4062 237.156 73.4062 239.031C73.4062 241.01 73.0208 242.781 72.25 244.344C71.4792 245.906 70.3646 247.229 68.9062 248.312C67.4479 249.396 65.7083 250.219 63.6875 250.781C61.6667 251.344 59.4062 251.625 56.9062 251.625C54.6562 251.625 52.4375 251.333 50.25 250.75C48.0625 250.146 46.0729 249.24 44.2812 248.031C42.5104 246.823 41.0938 245.281 40.0312 243.406C38.9688 241.531 38.4375 239.312 38.4375 236.75H47.8438C47.8438 238.167 48.0625 239.365 48.5 240.344C48.9375 241.323 49.5521 242.115 50.3438 242.719C51.1562 243.323 52.1146 243.76 53.2188 244.031C54.3438 244.302 55.5729 244.438 56.9062 244.438C58.5312 244.438 59.8646 244.208 60.9062 243.75C61.9688 243.292 62.75 242.656 63.25 241.844C63.7708 241.031 64.0312 240.115 64.0312 239.094ZM100.125 205.5V251H90.7812V205.5H100.125ZM114.125 205.5V212.844H77V205.5H114.125ZM155.969 227.188V229.344C155.969 232.802 155.5 235.906 154.562 238.656C153.625 241.406 152.302 243.75 150.594 245.688C148.885 247.604 146.844 249.073 144.469 250.094C142.115 251.115 139.5 251.625 136.625 251.625C133.771 251.625 131.156 251.115 128.781 250.094C126.427 249.073 124.385 247.604 122.656 245.688C120.927 243.75 119.583 241.406 118.625 238.656C117.688 235.906 117.219 232.802 117.219 229.344V227.188C117.219 223.708 117.688 220.604 118.625 217.875C119.562 215.125 120.885 212.781 122.594 210.844C124.323 208.906 126.365 207.427 128.719 206.406C131.094 205.385 133.708 204.875 136.562 204.875C139.438 204.875 142.052 205.385 144.406 206.406C146.781 207.427 148.823 208.906 150.531 210.844C152.26 212.781 153.594 215.125 154.531 217.875C155.49 220.604 155.969 223.708 155.969 227.188ZM146.5 229.344V227.125C146.5 224.708 146.281 222.583 145.844 220.75C145.406 218.917 144.76 217.375 143.906 216.125C143.052 214.875 142.01 213.938 140.781 213.312C139.552 212.667 138.146 212.344 136.562 212.344C134.979 212.344 133.573 212.667 132.344 213.312C131.135 213.938 130.104 214.875 129.25 216.125C128.417 217.375 127.781 218.917 127.344 220.75C126.906 222.583 126.688 224.708 126.688 227.125V229.344C126.688 231.74 126.906 233.865 127.344 235.719C127.781 237.552 128.427 239.104 129.281 240.375C130.135 241.625 131.177 242.573 132.406 243.219C133.635 243.865 135.042 244.188 136.625 244.188C138.208 244.188 139.615 243.865 140.844 243.219C142.073 242.573 143.104 241.625 143.938 240.375C144.771 239.104 145.406 237.552 145.844 235.719C146.281 233.865 146.5 231.74 146.5 229.344ZM162.719 205.5H179.688C183.167 205.5 186.156 206.021 188.656 207.062C191.177 208.104 193.115 209.646 194.469 211.688C195.823 213.729 196.5 216.24 196.5 219.219C196.5 221.656 196.083 223.75 195.25 225.5C194.438 227.229 193.281 228.677 191.781 229.844C190.302 230.99 188.562 231.906 186.562 232.594L183.594 234.156H168.844L168.781 226.844H179.75C181.396 226.844 182.76 226.552 183.844 225.969C184.927 225.385 185.74 224.573 186.281 223.531C186.844 222.49 187.125 221.281 187.125 219.906C187.125 218.448 186.854 217.188 186.312 216.125C185.771 215.062 184.948 214.25 183.844 213.688C182.74 213.125 181.354 212.844 179.688 212.844H172.094V251H162.719V205.5ZM188.156 251L177.781 230.719L187.688 230.656L198.188 250.562V251H188.156ZM222.219 213.281L209.844 251H199.875L216.781 205.5H223.125L222.219 213.281ZM232.5 251L220.094 213.281L219.094 205.5H225.5L242.5 251H232.5ZM231.938 234.062V241.406H207.906V234.062H231.938ZM282.219 227.219V245.25C281.51 246.104 280.417 247.031 278.938 248.031C277.458 249.01 275.552 249.854 273.219 250.562C270.885 251.271 268.062 251.625 264.75 251.625C261.812 251.625 259.135 251.146 256.719 250.188C254.302 249.208 252.219 247.781 250.469 245.906C248.74 244.031 247.406 241.74 246.469 239.031C245.531 236.302 245.062 233.188 245.062 229.688V226.844C245.062 223.344 245.51 220.229 246.406 217.5C247.323 214.771 248.625 212.469 250.312 210.594C252 208.719 254.01 207.292 256.344 206.312C258.677 205.333 261.271 204.844 264.125 204.844C268.083 204.844 271.333 205.49 273.875 206.781C276.417 208.052 278.354 209.823 279.688 212.094C281.042 214.344 281.875 216.927 282.188 219.844H273.094C272.865 218.302 272.427 216.958 271.781 215.812C271.135 214.667 270.208 213.771 269 213.125C267.812 212.479 266.271 212.156 264.375 212.156C262.812 212.156 261.417 212.479 260.188 213.125C258.979 213.75 257.958 214.677 257.125 215.906C256.292 217.135 255.656 218.656 255.219 220.469C254.781 222.281 254.562 224.385 254.562 226.781V229.688C254.562 232.062 254.792 234.167 255.25 236C255.708 237.812 256.385 239.344 257.281 240.594C258.198 241.823 259.323 242.75 260.656 243.375C261.99 244 263.542 244.312 265.312 244.312C266.792 244.312 268.021 244.188 269 243.938C270 243.688 270.802 243.385 271.406 243.031C272.031 242.656 272.51 242.302 272.844 241.969V233.906H264.281V227.219H282.219ZM320.312 243.688V251H296.094V243.688H320.312ZM299.156 205.5V251H289.781V205.5H299.156ZM317.156 224.031V231.156H296.094V224.031H317.156ZM320.281 205.5V212.844H296.094V205.5H320.281Z" fill="#021112"/>
<path d="M178.5 341L283.722 266.75H73.2779L178.5 341Z" fill="#04686F"/>
<path d="M225.988 95.0368L208.211 69.4831C207.464 68.408 206.467 67.5297 205.306 66.9232C204.145 66.3167 202.855 66 201.545 66H155.897C154.587 66 153.297 66.3167 152.136 66.9232C150.975 67.5297 149.979 68.408 149.231 69.4831L131.454 95.0368C130.508 96.3978 130 98.0161 130 99.6741V122.841C130 127.326 133.635 130.961 138.12 130.961H219.322C223.807 130.961 227.442 127.326 227.442 122.841V99.6741C227.442 98.016 226.935 96.3979 225.988 95.0368ZM155.897 74.1202H201.545L214.726 93.0673H142.716L155.897 74.1202ZM219.322 122.841H138.12V101.187H219.322V122.841ZM213.909 112.014C213.909 115.004 211.485 117.428 208.495 117.428C205.505 117.428 203.082 115.004 203.082 112.014C203.082 109.025 205.505 106.601 208.495 106.601C211.485 106.601 213.909 109.025 213.909 112.014ZM197.668 112.014C197.668 115.004 195.244 117.428 192.255 117.428C189.265 117.428 186.841 115.004 186.841 112.014C186.841 109.025 189.265 106.601 192.255 106.601C195.244 106.601 197.668 109.025 197.668 112.014Z" fill="#04686F"/>
<defs>
<filter id="filter0_dd_528_14" x="0" y="0" width="358" height="358" filterUnits="userSpaceOnUse" color-interpolation-filters="sRGB">
<feFlood flood-opacity="0" result="BackgroundImageFix"/>
<feColorMatrix in="SourceAlpha" type="matrix" values="0 0 0 0 0 0 0 0 0 0 0 0 0 0 0 0 0 0 127 0" result="hardAlpha"/>
<feOffset dy="4"/>
<feGaussianBlur stdDeviation="2"/>
<feComposite in2="hardAlpha" operator="out"/>
<feColorMatrix type="matrix" values="0 0 0 0 0.0156863 0 0 0 0 0.407843 0 0 0 0 0.435294 0 0 0 0.25 0"/>
<feBlend mode="normal" in2="BackgroundImageFix" result="effect1_dropShadow_528_14"/>
<feColorMatrix in="SourceAlpha" type="matrix" values="0 0 0 0 0 0 0 0 0 0 0 0 0 0 0 0 0 0 127 0" result="hardAlpha"/>
<feOffset dy="4"/>
<feGaussianBlur stdDeviation="2"/>
<feComposite in2="hardAlpha" operator="out"/>
<feColorMatrix type="matrix" values="0 0 0 0 0 0 0 0 0 0 0 0 0 0 0 0 0 0 0.25 0"/>
<feBlend mode="normal" in2="effect1_dropShadow_528_14" result="effect2_dropShadow_528_14"/>
<feBlend mode="normal" in="SourceGraphic" in2="effect2_dropShadow_528_14" result="shape"/>
</filter>
</defs>
</svg>
