<svg width="358" height="358" viewBox="0 0 358 358" fill="none" xmlns="http://www.w3.org/2000/svg">
<g filter="url(#filter0_dd_529_15)">
<circle cx="179" cy="175" r="175" fill="white"/>
</g>
<path d="M60.541 201.719V233H54.0957L41.5273 212.031V233H35.082V201.719H41.5273L54.1172 222.709V201.719H60.541ZM91.8438 216.629V218.111C91.8438 220.489 91.5215 222.623 90.877 224.514C90.2324 226.404 89.3229 228.016 88.1484 229.348C86.974 230.665 85.5703 231.675 83.9375 232.377C82.319 233.079 80.5215 233.43 78.5449 233.43C76.5827 233.43 74.7852 233.079 73.1523 232.377C71.5339 231.675 70.1302 230.665 68.9414 229.348C67.7526 228.016 66.8288 226.404 66.1699 224.514C65.5254 222.623 65.2031 220.489 65.2031 218.111V216.629C65.2031 214.237 65.5254 212.103 66.1699 210.227C66.8145 208.336 67.724 206.725 68.8984 205.393C70.0872 204.061 71.4909 203.044 73.1094 202.342C74.7422 201.64 76.5397 201.289 78.502 201.289C80.4785 201.289 82.276 201.64 83.8945 202.342C85.5273 203.044 86.931 204.061 88.1055 205.393C89.2943 206.725 90.2109 208.336 90.8555 210.227C91.5143 212.103 91.8438 214.237 91.8438 216.629ZM85.334 218.111V216.586C85.334 214.924 85.1836 213.464 84.8828 212.203C84.582 210.943 84.138 209.883 83.5508 209.023C82.9635 208.164 82.2474 207.52 81.4023 207.09C80.5573 206.646 79.5905 206.424 78.502 206.424C77.4134 206.424 76.4466 206.646 75.6016 207.09C74.7708 207.52 74.0618 208.164 73.4746 209.023C72.9017 209.883 72.4648 210.943 72.1641 212.203C71.8633 213.464 71.7129 214.924 71.7129 216.586V218.111C71.7129 219.758 71.8633 221.219 72.1641 222.494C72.4648 223.755 72.9089 224.822 73.4961 225.695C74.0833 226.555 74.7995 227.206 75.6445 227.65C76.4896 228.094 77.4564 228.316 78.5449 228.316C79.6335 228.316 80.6003 228.094 81.4453 227.65C82.2904 227.206 82.9993 226.555 83.5723 225.695C84.1452 224.822 84.582 223.755 84.8828 222.494C85.1836 221.219 85.334 219.758 85.334 218.111ZM109.01 201.719V233H102.586V201.719H109.01ZM118.635 201.719V206.768H93.1113V201.719H118.635ZM129.162 201.719V233H122.738V201.719H129.162ZM141.645 201.719V233H135.199V201.719H141.645ZM154.105 215.082V220.109H139.883V215.082H154.105ZM155.609 201.719V206.768H139.883V201.719H155.609ZM166.201 201.719V233H159.777V201.719H166.201ZM190.371 222.623H196.795C196.666 224.729 196.086 226.598 195.055 228.23C194.038 229.863 192.613 231.138 190.779 232.055C188.96 232.971 186.769 233.43 184.205 233.43C182.2 233.43 180.402 233.086 178.812 232.398C177.223 231.697 175.862 230.694 174.73 229.391C173.613 228.087 172.761 226.512 172.174 224.664C171.587 222.816 171.293 220.747 171.293 218.455V216.285C171.293 213.993 171.594 211.924 172.195 210.076C172.811 208.214 173.685 206.632 174.816 205.328C175.962 204.025 177.33 203.022 178.92 202.32C180.51 201.618 182.286 201.268 184.248 201.268C186.855 201.268 189.053 201.74 190.844 202.686C192.648 203.631 194.045 204.934 195.033 206.596C196.036 208.257 196.637 210.148 196.838 212.268H190.393C190.321 211.007 190.07 209.94 189.641 209.066C189.211 208.178 188.559 207.512 187.686 207.068C186.826 206.61 185.68 206.381 184.248 206.381C183.174 206.381 182.236 206.581 181.434 206.982C180.632 207.383 179.958 207.992 179.414 208.809C178.87 209.625 178.462 210.656 178.189 211.902C177.932 213.134 177.803 214.581 177.803 216.242V218.455C177.803 220.074 177.924 221.499 178.168 222.73C178.411 223.948 178.784 224.979 179.285 225.824C179.801 226.655 180.46 227.285 181.262 227.715C182.078 228.13 183.059 228.338 184.205 228.338C185.551 228.338 186.661 228.123 187.535 227.693C188.409 227.264 189.075 226.626 189.533 225.781C190.006 224.936 190.285 223.883 190.371 222.623ZM213.746 207.068L205.238 233H198.385L210.008 201.719H214.369L213.746 207.068ZM220.814 233L212.285 207.068L211.598 201.719H216.002L227.689 233H220.814ZM220.428 221.355V226.404H203.906V221.355H220.428ZM241.912 201.719V233H235.488V201.719H241.912ZM251.537 201.719V206.768H226.014V201.719H251.537ZM262.064 201.719V233H255.641V201.719H262.064ZM293.797 216.629V218.111C293.797 220.489 293.475 222.623 292.83 224.514C292.186 226.404 291.276 228.016 290.102 229.348C288.927 230.665 287.523 231.675 285.891 232.377C284.272 233.079 282.475 233.43 280.498 233.43C278.536 233.43 276.738 233.079 275.105 232.377C273.487 231.675 272.083 230.665 270.895 229.348C269.706 228.016 268.782 226.404 268.123 224.514C267.479 222.623 267.156 220.489 267.156 218.111V216.629C267.156 214.237 267.479 212.103 268.123 210.227C268.768 208.336 269.677 206.725 270.852 205.393C272.04 204.061 273.444 203.044 275.062 202.342C276.695 201.64 278.493 201.289 280.455 201.289C282.432 201.289 284.229 201.64 285.848 202.342C287.48 203.044 288.884 204.061 290.059 205.393C291.247 206.725 292.164 208.336 292.809 210.227C293.467 212.103 293.797 214.237 293.797 216.629ZM287.287 218.111V216.586C287.287 214.924 287.137 213.464 286.836 212.203C286.535 210.943 286.091 209.883 285.504 209.023C284.917 208.164 284.201 207.52 283.355 207.09C282.51 206.646 281.544 206.424 280.455 206.424C279.367 206.424 278.4 206.646 277.555 207.09C276.724 207.52 276.015 208.164 275.428 209.023C274.855 209.883 274.418 210.943 274.117 212.203C273.816 213.464 273.666 214.924 273.666 216.586V218.111C273.666 219.758 273.816 221.219 274.117 222.494C274.418 223.755 274.862 224.822 275.449 225.695C276.036 226.555 276.753 227.206 277.598 227.65C278.443 228.094 279.41 228.316 280.498 228.316C281.587 228.316 282.553 228.094 283.398 227.65C284.243 227.206 284.952 226.555 285.525 225.695C286.098 224.822 286.535 223.755 286.836 222.494C287.137 221.219 287.287 219.758 287.287 218.111ZM323.896 201.719V233H317.451L304.883 212.031V233H298.438V201.719H304.883L317.473 222.709V201.719H323.896Z" fill="#021112"/>
<path d="M178.5 341L283.722 266.75H73.2779L178.5 341Z" fill="#04686F"/>
<path d="M176.767 51.6333C173.867 52.3667 171.067 54.9333 170.167 57.6667C169.7 59.0667 169.5 59.2667 167.567 60.1C160.267 63.3 154.7 69.6 151.967 77.8333C151.233 80.0333 151.2 80.7667 151.067 90.9667L150.967 101.767L148.4 104.3C144.067 108.567 142.033 112.9 141.767 118.333C141.6 121.433 141.6 121.533 142.5 122.333L143.4 123.167L155.133 123.267L166.9 123.367L167.667 125.267C168.167 126.433 169.1 127.8 170.133 128.833C174.033 132.7 179.667 133.667 184.6 131.267C186.867 130.2 189.4 127.533 190.333 125.267L191.1 123.367L202.867 123.267L214.6 123.167L215.467 122.367C216.233 121.633 216.333 121.3 216.333 119.2C216.333 113.833 214.133 108.8 209.967 104.567L207.4 101.967L207.267 91.5667C207.1 81.4333 207.1 81.1 206.233 78.2333C204.633 73 201.967 68.6 198.367 65.2333C196.267 63.2667 192.033 60.5333 189.933 59.7667C188.5 59.2667 188.3 59.0667 187.833 57.6333C187.133 55.6 185.3 53.5 183.3 52.4667C181.533 51.6 178.5 51.2 176.767 51.6333ZM184.167 64.5C185.267 64.7667 187.433 65.6333 189 66.4C192.767 68.2333 196.267 71.7 198.233 75.5C200.667 80.2333 200.733 80.7333 200.9 93.7667L201.067 105.333L202.4 106.433C206.7 109.833 208.7 112.467 209.6 115.733L209.933 117H179H148.067L148.4 115.733C149.3 112.467 151.3 109.833 155.6 106.433L156.933 105.333L157.1 93.7667C157.267 80.7333 157.333 80.2333 159.767 75.5C161.733 71.7 165.233 68.2333 169 66.4C170.567 65.6333 172.667 64.8 173.667 64.5333C176.133 63.8667 181.667 63.8667 184.167 64.5ZM183.633 124.2C182.467 125.467 180.567 126.333 179 126.333C177.433 126.333 175.533 125.467 174.367 124.2L173.567 123.333H179H184.433L183.633 124.2Z" fill="#04686F"/>
<defs>
<filter id="filter0_dd_529_15" x="0" y="0" width="358" height="358" filterUnits="userSpaceOnUse" color-interpolation-filters="sRGB">
<feFlood flood-opacity="0" result="BackgroundImageFix"/>
<feColorMatrix in="SourceAlpha" type="matrix" values="0 0 0 0 0 0 0 0 0 0 0 0 0 0 0 0 0 0 127 0" result="hardAlpha"/>
<feOffset dy="4"/>
<feGaussianBlur stdDeviation="2"/>
<feComposite in2="hardAlpha" operator="out"/>
<feColorMatrix type="matrix" values="0 0 0 0 0.0156863 0 0 0 0 0.407843 0 0 0 0 0.435294 0 0 0 0.25 0"/>
<feBlend mode="normal" in2="BackgroundImageFix" result="effect1_dropShadow_529_15"/>
<feColorMatrix in="SourceAlpha" type="matrix" values="0 0 0 0 0 0 0 0 0 0 0 0 0 0 0 0 0 0 127 0" result="hardAlpha"/>
<feOffset dy="4"/>
<feGaussianBlur stdDeviation="2"/>
<feComposite in2="hardAlpha" operator="out"/>
<feColorMatrix type="matrix" values="0 0 0 0 0 0 0 0 0 0 0 0 0 0 0 0 0 0 0.25 0"/>
<feBlend mode="normal" in2="effect1_dropShadow_529_15" result="effect2_dropShadow_529_15"/>
<feBlend mode="normal" in="SourceGraphic" in2="effect2_dropShadow_529_15" result="shape"/>
</filter>
</defs>
</svg>
