<svg width="358" height="358" viewBox="0 0 358 358" fill="none" xmlns="http://www.w3.org/2000/svg">
<g filter="url(#filter0_dd_537_11)">
<circle cx="179" cy="175" r="175" fill="white"/>
</g>
<path d="M179 116L304.574 149.75H53.4263L179 116Z" fill="#04686F"/>
<path d="M179 231L304.574 201H53.4263L179 231Z" fill="#04686F"/>
<path d="M110.762 180.303C110.762 179.846 110.691 179.436 110.551 179.072C110.422 178.697 110.176 178.357 109.812 178.053C109.449 177.736 108.939 177.426 108.283 177.121C107.627 176.816 106.777 176.5 105.734 176.172C104.574 175.797 103.473 175.375 102.43 174.906C101.398 174.438 100.484 173.893 99.6875 173.271C98.9023 172.639 98.2812 171.906 97.8242 171.074C97.3789 170.242 97.1562 169.275 97.1562 168.174C97.1562 167.107 97.3906 166.141 97.8594 165.273C98.3281 164.395 98.9844 163.645 99.8281 163.023C100.672 162.391 101.668 161.904 102.816 161.564C103.977 161.225 105.248 161.055 106.631 161.055C108.518 161.055 110.164 161.395 111.57 162.074C112.977 162.754 114.066 163.686 114.84 164.869C115.625 166.053 116.018 167.406 116.018 168.93H110.779C110.779 168.18 110.621 167.523 110.305 166.961C110 166.387 109.531 165.936 108.898 165.607C108.277 165.279 107.492 165.115 106.543 165.115C105.629 165.115 104.867 165.256 104.258 165.537C103.648 165.807 103.191 166.176 102.887 166.645C102.582 167.102 102.43 167.617 102.43 168.191C102.43 168.625 102.535 169.018 102.746 169.369C102.969 169.721 103.297 170.049 103.73 170.354C104.164 170.658 104.697 170.945 105.33 171.215C105.963 171.484 106.695 171.748 107.527 172.006C108.922 172.428 110.146 172.902 111.201 173.43C112.268 173.957 113.158 174.549 113.873 175.205C114.588 175.861 115.127 176.605 115.49 177.438C115.854 178.27 116.035 179.213 116.035 180.268C116.035 181.381 115.818 182.377 115.385 183.256C114.951 184.135 114.324 184.879 113.504 185.488C112.684 186.098 111.705 186.561 110.568 186.877C109.432 187.193 108.16 187.352 106.754 187.352C105.488 187.352 104.24 187.188 103.01 186.859C101.779 186.52 100.66 186.01 99.6523 185.33C98.6562 184.65 97.8594 183.783 97.2617 182.729C96.6641 181.674 96.3652 180.426 96.3652 178.984H101.656C101.656 179.781 101.779 180.455 102.025 181.006C102.271 181.557 102.617 182.002 103.062 182.342C103.52 182.682 104.059 182.928 104.68 183.08C105.312 183.232 106.004 183.309 106.754 183.309C107.668 183.309 108.418 183.18 109.004 182.922C109.602 182.664 110.041 182.307 110.322 181.85C110.615 181.393 110.762 180.877 110.762 180.303ZM136.795 182.887V187H123.172V182.887H136.795ZM124.895 161.406V187H119.621V161.406H124.895ZM135.02 171.83V175.838H123.172V171.83H135.02ZM136.777 161.406V165.537H123.172V161.406H136.777ZM154.707 178.51H159.963C159.857 180.232 159.383 181.762 158.539 183.098C157.707 184.434 156.541 185.477 155.041 186.227C153.553 186.977 151.76 187.352 149.662 187.352C148.021 187.352 146.551 187.07 145.25 186.508C143.949 185.934 142.836 185.113 141.91 184.047C140.996 182.98 140.299 181.691 139.818 180.18C139.338 178.668 139.098 176.975 139.098 175.1V173.324C139.098 171.449 139.344 169.756 139.836 168.244C140.34 166.721 141.055 165.426 141.98 164.359C142.918 163.293 144.037 162.473 145.338 161.898C146.639 161.324 148.092 161.037 149.697 161.037C151.83 161.037 153.629 161.424 155.094 162.197C156.57 162.971 157.713 164.037 158.521 165.396C159.342 166.756 159.834 168.303 159.998 170.037H154.725C154.666 169.006 154.461 168.133 154.109 167.418C153.758 166.691 153.225 166.146 152.51 165.783C151.807 165.408 150.869 165.221 149.697 165.221C148.818 165.221 148.051 165.385 147.395 165.713C146.738 166.041 146.188 166.539 145.742 167.207C145.297 167.875 144.963 168.719 144.74 169.738C144.529 170.746 144.424 171.93 144.424 173.289V175.1C144.424 176.424 144.523 177.59 144.723 178.598C144.922 179.594 145.227 180.438 145.637 181.129C146.059 181.809 146.598 182.324 147.254 182.676C147.922 183.016 148.725 183.186 149.662 183.186C150.764 183.186 151.672 183.01 152.387 182.658C153.102 182.307 153.646 181.785 154.021 181.094C154.408 180.402 154.637 179.541 154.707 178.51ZM177.559 161.406H182.814V178.316C182.814 180.285 182.393 181.943 181.549 183.291C180.717 184.639 179.562 185.652 178.086 186.332C176.621 187.012 174.934 187.352 173.023 187.352C171.113 187.352 169.414 187.012 167.926 186.332C166.449 185.652 165.289 184.639 164.445 183.291C163.613 181.943 163.197 180.285 163.197 178.316V161.406H168.471V178.316C168.471 179.465 168.652 180.402 169.016 181.129C169.379 181.855 169.9 182.389 170.58 182.729C171.271 183.068 172.086 183.238 173.023 183.238C173.984 183.238 174.799 183.068 175.467 182.729C176.146 182.389 176.662 181.855 177.014 181.129C177.377 180.402 177.559 179.465 177.559 178.316V161.406ZM187.156 161.406H196.701C198.658 161.406 200.34 161.699 201.746 162.285C203.164 162.871 204.254 163.738 205.016 164.887C205.777 166.035 206.158 167.447 206.158 169.123C206.158 170.494 205.924 171.672 205.455 172.656C204.998 173.629 204.348 174.443 203.504 175.1C202.672 175.744 201.693 176.26 200.568 176.646L198.898 177.525H190.602L190.566 173.412H196.736C197.662 173.412 198.43 173.248 199.039 172.92C199.648 172.592 200.105 172.135 200.41 171.549C200.727 170.963 200.885 170.283 200.885 169.51C200.885 168.689 200.732 167.98 200.428 167.383C200.123 166.785 199.66 166.328 199.039 166.012C198.418 165.695 197.639 165.537 196.701 165.537H192.43V187H187.156V161.406ZM201.465 187L195.629 175.592L201.201 175.557L207.107 186.754V187H201.465ZM215.826 161.406V187H210.57V161.406H215.826ZM231.682 161.406V187H226.426V161.406H231.682ZM239.557 161.406V165.537H218.674V161.406H239.557ZM246.359 161.406L251.703 173.078L257.047 161.406H262.795L254.375 177.684V187H249.031V177.684L240.594 161.406H246.359Z" fill="#021112"/>
<path d="M177.188 242.061C174.026 242.312 170.769 243.21 168.009 244.593C164.217 246.5 160.967 249.305 158.496 252.818C157.788 253.822 157.175 254.864 156.556 256.136C155.463 258.366 154.81 260.346 154.387 262.688C154.046 264.567 154.058 264.405 154.024 271.833L153.991 278.664L153.316 278.703C150.918 278.831 148.71 279.79 147.026 281.418C145.431 282.968 144.533 284.708 144.11 287.072C144.026 287.541 144.015 289.13 143.998 304.76C143.981 316.582 143.993 322.186 144.037 322.732C144.411 327.734 148.013 331.448 152.987 331.944C153.427 331.989 160.905 332 179.418 331.989L205.236 331.967L205.849 331.844C208.03 331.415 209.686 330.55 211.147 329.072C212.797 327.405 213.756 325.27 213.963 322.805C214.041 321.89 214.035 288.745 213.957 287.864C213.656 284.357 211.548 281.257 208.403 279.701C207.177 279.093 205.978 278.775 204.651 278.697L204.009 278.664L203.976 271.833C203.942 264.405 203.953 264.567 203.613 262.688C202.732 257.781 200.401 253.275 196.872 249.645C194.769 247.481 192.522 245.853 189.846 244.537C187.125 243.199 184.504 242.452 181.37 242.112C180.6 242.028 178.002 241.994 177.188 242.061ZM181.782 245.507C186.522 246.149 190.671 248.145 194.056 251.407C197.658 254.875 199.888 259.392 200.524 264.472C200.652 265.532 200.697 267.779 200.68 273.115L200.664 278.664L199.007 278.68L197.346 278.691V272.658C197.346 269.089 197.323 266.29 197.29 265.81C197.006 261.857 195.506 258.216 192.885 255.132C192.673 254.887 192.16 254.346 191.73 253.928C188.937 251.19 185.44 249.439 181.593 248.859C180.433 248.68 178.258 248.641 177.104 248.775C172.95 249.249 169.258 251 166.292 253.9C164.742 255.422 163.665 256.861 162.706 258.706C161.558 260.92 160.9 263.24 160.71 265.783C160.677 266.257 160.654 268.967 160.654 272.63V278.691L158.998 278.68L157.336 278.664V272.167C157.342 265.169 157.342 265.091 157.649 263.296C158.691 257.156 162.416 251.697 167.775 248.452C170.435 246.84 173.641 245.764 176.686 245.463C177.026 245.429 177.388 245.39 177.494 245.379C177.6 245.368 178.42 245.362 179.307 245.374C180.55 245.39 181.119 245.418 181.782 245.507ZM180.729 252.099C182.953 252.333 185.318 253.186 187.208 254.429C188.134 255.037 188.675 255.472 189.45 256.219C192.048 258.74 193.61 262.035 193.944 265.699C193.978 266.095 194 268.716 194 272.513V278.691H179H164V272.513C164 268.716 164.022 266.095 164.056 265.699C164.374 262.208 165.79 259.069 168.171 256.599C171.444 253.208 175.95 251.591 180.729 252.099ZM204.678 282.037C206.006 282.188 207.143 282.662 208.203 283.515C209.396 284.468 210.199 285.807 210.545 287.401C210.639 287.842 210.645 288.779 210.645 305.346C210.645 322.197 210.639 322.844 210.539 323.301C209.937 326.05 207.773 328.136 205.069 328.571C204.31 328.693 153.69 328.693 152.926 328.571C151.626 328.359 150.411 327.751 149.44 326.831C148.459 325.9 147.818 324.784 147.478 323.413L147.361 322.939L147.338 305.708C147.327 293.586 147.338 288.322 147.383 287.948C147.74 284.831 150.165 282.405 153.282 282.037C153.862 281.97 204.076 281.97 204.678 282.037Z" fill="#04686F"/>
<path d="M177.69 292.102C174.991 292.526 172.716 294.193 171.528 296.619C170.959 297.779 170.691 298.95 170.691 300.288C170.691 302.63 171.545 304.582 173.351 306.388L173.976 307.013L173.993 310.682C174.015 314.262 174.015 314.362 174.138 314.797C174.645 316.643 176.072 318.048 177.94 318.545C178.448 318.678 179.563 318.678 180.082 318.539C181.297 318.216 182.429 317.429 183.121 316.426C183.388 316.035 183.723 315.299 183.862 314.797C183.985 314.362 183.985 314.268 184.007 310.682L184.024 307.019L184.626 306.416C186.45 304.599 187.309 302.636 187.309 300.288C187.309 296.095 184.309 292.643 180.154 292.08C179.58 292.002 178.253 292.013 177.69 292.102ZM180.104 295.481C181.9 295.894 183.433 297.444 183.89 299.307C184.024 299.864 184.013 300.941 183.857 301.571C183.5 303.065 182.48 304.264 181.074 304.838L180.701 304.994L180.673 309.561C180.645 314.05 180.645 314.134 180.528 314.379C180.361 314.742 180.143 314.976 179.814 315.149C179.563 315.283 179.468 315.299 179 315.299C178.559 315.299 178.431 315.277 178.242 315.177C177.874 314.981 177.678 314.786 177.511 314.446L177.355 314.128L177.338 309.572L177.322 305.011L176.914 304.822C174.656 303.779 173.474 301.152 174.238 298.877C174.818 297.16 176.284 295.822 178.002 295.454C178.738 295.297 179.329 295.303 180.104 295.481Z" fill="#04686F"/>
<defs>
<filter id="filter0_dd_537_11" x="0" y="0" width="358" height="358" filterUnits="userSpaceOnUse" color-interpolation-filters="sRGB">
<feFlood flood-opacity="0" result="BackgroundImageFix"/>
<feColorMatrix in="SourceAlpha" type="matrix" values="0 0 0 0 0 0 0 0 0 0 0 0 0 0 0 0 0 0 127 0" result="hardAlpha"/>
<feOffset dy="4"/>
<feGaussianBlur stdDeviation="2"/>
<feComposite in2="hardAlpha" operator="out"/>
<feColorMatrix type="matrix" values="0 0 0 0 0.0156863 0 0 0 0 0.407843 0 0 0 0 0.435294 0 0 0 0.25 0"/>
<feBlend mode="normal" in2="BackgroundImageFix" result="effect1_dropShadow_537_11"/>
<feColorMatrix in="SourceAlpha" type="matrix" values="0 0 0 0 0 0 0 0 0 0 0 0 0 0 0 0 0 0 127 0" result="hardAlpha"/>
<feOffset dy="4"/>
<feGaussianBlur stdDeviation="2"/>
<feComposite in2="hardAlpha" operator="out"/>
<feColorMatrix type="matrix" values="0 0 0 0 0 0 0 0 0 0 0 0 0 0 0 0 0 0 0.25 0"/>
<feBlend mode="normal" in2="effect1_dropShadow_537_11" result="effect2_dropShadow_537_11"/>
<feBlend mode="normal" in="SourceGraphic" in2="effect2_dropShadow_537_11" result="shape"/>
</filter>
</defs>
</svg>
