<svg width="358" height="358" viewBox="0 0 358 358" fill="none" xmlns="http://www.w3.org/2000/svg">
<g filter="url(#filter0_dd_537_4)">
<circle cx="179" cy="175" r="175" fill="white"/>
</g>
<path d="M179 116L304.574 149.75H53.4263L179 116Z" fill="#04686F"/>
<path d="M179 231L304.574 201H53.4263L179 231Z" fill="#04686F"/>
<path d="M176.767 249.633C173.867 250.367 171.067 252.933 170.167 255.667C169.7 257.067 169.5 257.267 167.567 258.1C160.267 261.3 154.7 267.6 151.967 275.833C151.233 278.033 151.2 278.767 151.067 288.967L150.967 299.767L148.4 302.3C144.067 306.567 142.033 310.9 141.767 316.333C141.6 319.433 141.6 319.533 142.5 320.333L143.4 321.167L155.133 321.267L166.9 321.367L167.667 323.267C168.167 324.433 169.1 325.8 170.133 326.833C174.033 330.7 179.667 331.667 184.6 329.267C186.867 328.2 189.4 325.533 190.333 323.267L191.1 321.367L202.867 321.267L214.6 321.167L215.467 320.367C216.233 319.633 216.333 319.3 216.333 317.2C216.333 311.833 214.133 306.8 209.967 302.567L207.4 299.967L207.267 289.567C207.1 279.433 207.1 279.1 206.233 276.233C204.633 271 201.967 266.6 198.367 263.233C196.267 261.267 192.033 258.533 189.933 257.767C188.5 257.267 188.3 257.067 187.833 255.633C187.133 253.6 185.3 251.5 183.3 250.467C181.533 249.6 178.5 249.2 176.767 249.633ZM184.167 262.5C185.267 262.767 187.433 263.633 189 264.4C192.767 266.233 196.267 269.7 198.233 273.5C200.667 278.233 200.733 278.733 200.9 291.767L201.067 303.333L202.4 304.433C206.7 307.833 208.7 310.467 209.6 313.733L209.933 315H179H148.067L148.4 313.733C149.3 310.467 151.3 307.833 155.6 304.433L156.933 303.333L157.1 291.767C157.267 278.733 157.333 278.233 159.767 273.5C161.733 269.7 165.233 266.233 169 264.4C170.567 263.633 172.667 262.8 173.667 262.533C176.133 261.867 181.667 261.867 184.167 262.5ZM183.633 322.2C182.467 323.467 180.567 324.333 179 324.333C177.433 324.333 175.533 323.467 174.367 322.2L173.567 321.333H179H184.433L183.633 322.2Z" fill="#04686F"/>
<path d="M81.1699 161.406V187H75.8965L65.6133 169.844V187H60.3398V161.406H65.6133L75.9141 178.58V161.406H81.1699ZM106.781 173.605V174.818C106.781 176.764 106.518 178.51 105.99 180.057C105.463 181.604 104.719 182.922 103.758 184.012C102.797 185.09 101.648 185.916 100.312 186.49C98.9883 187.064 97.5176 187.352 95.9004 187.352C94.2949 187.352 92.8242 187.064 91.4883 186.49C90.1641 185.916 89.0156 185.09 88.043 184.012C87.0703 182.922 86.3145 181.604 85.7754 180.057C85.248 178.51 84.9844 176.764 84.9844 174.818V173.605C84.9844 171.648 85.248 169.902 85.7754 168.367C86.3027 166.82 87.0469 165.502 88.0078 164.412C88.9805 163.322 90.1289 162.49 91.4531 161.916C92.7891 161.342 94.2598 161.055 95.8652 161.055C97.4824 161.055 98.9531 161.342 100.277 161.916C101.613 162.49 102.762 163.322 103.723 164.412C104.695 165.502 105.445 166.82 105.973 168.367C106.512 169.902 106.781 171.648 106.781 173.605ZM101.455 174.818V173.57C101.455 172.211 101.332 171.016 101.086 169.984C100.84 168.953 100.477 168.086 99.9961 167.383C99.5156 166.68 98.9297 166.152 98.2383 165.801C97.5469 165.438 96.7559 165.256 95.8652 165.256C94.9746 165.256 94.1836 165.438 93.4922 165.801C92.8125 166.152 92.2324 166.68 91.752 167.383C91.2832 168.086 90.9258 168.953 90.6797 169.984C90.4336 171.016 90.3105 172.211 90.3105 173.57V174.818C90.3105 176.166 90.4336 177.361 90.6797 178.404C90.9258 179.436 91.2891 180.309 91.7695 181.023C92.25 181.727 92.8359 182.26 93.5273 182.623C94.2188 182.986 95.0098 183.168 95.9004 183.168C96.791 183.168 97.582 182.986 98.2734 182.623C98.9648 182.26 99.5449 181.727 100.014 181.023C100.482 180.309 100.84 179.436 101.086 178.404C101.332 177.361 101.455 176.166 101.455 174.818ZM120.826 161.406V187H115.57V161.406H120.826ZM128.701 161.406V165.537H107.818V161.406H128.701ZM137.314 161.406V187H132.059V161.406H137.314ZM147.527 161.406V187H142.254V161.406H147.527ZM157.723 172.34V176.453H146.086V172.34H157.723ZM158.953 161.406V165.537H146.086V161.406H158.953ZM167.619 161.406V187H162.363V161.406H167.619ZM187.395 178.51H192.65C192.545 180.232 192.07 181.762 191.227 183.098C190.395 184.434 189.229 185.477 187.729 186.227C186.24 186.977 184.447 187.352 182.35 187.352C180.709 187.352 179.238 187.07 177.938 186.508C176.637 185.934 175.523 185.113 174.598 184.047C173.684 182.98 172.986 181.691 172.506 180.18C172.025 178.668 171.785 176.975 171.785 175.1V173.324C171.785 171.449 172.031 169.756 172.523 168.244C173.027 166.721 173.742 165.426 174.668 164.359C175.605 163.293 176.725 162.473 178.025 161.898C179.326 161.324 180.779 161.037 182.385 161.037C184.518 161.037 186.316 161.424 187.781 162.197C189.258 162.971 190.4 164.037 191.209 165.396C192.029 166.756 192.521 168.303 192.686 170.037H187.412C187.354 169.006 187.148 168.133 186.797 167.418C186.445 166.691 185.912 166.146 185.197 165.783C184.494 165.408 183.557 165.221 182.385 165.221C181.506 165.221 180.738 165.385 180.082 165.713C179.426 166.041 178.875 166.539 178.43 167.207C177.984 167.875 177.65 168.719 177.428 169.738C177.217 170.746 177.111 171.93 177.111 173.289V175.1C177.111 176.424 177.211 177.59 177.41 178.598C177.609 179.594 177.914 180.438 178.324 181.129C178.746 181.809 179.285 182.324 179.941 182.676C180.609 183.016 181.412 183.186 182.35 183.186C183.451 183.186 184.359 183.01 185.074 182.658C185.789 182.307 186.334 181.785 186.709 181.094C187.096 180.402 187.324 179.541 187.395 178.51ZM206.52 165.783L199.559 187H193.951L203.461 161.406H207.029L206.52 165.783ZM212.303 187L205.324 165.783L204.762 161.406H208.365L217.928 187H212.303ZM211.986 177.473V181.604H198.469V177.473H211.986ZM229.564 161.406V187H224.309V161.406H229.564ZM237.439 161.406V165.537H216.557V161.406H237.439ZM246.053 161.406V187H240.797V161.406H246.053ZM272.016 173.605V174.818C272.016 176.764 271.752 178.51 271.225 180.057C270.697 181.604 269.953 182.922 268.992 184.012C268.031 185.09 266.883 185.916 265.547 186.49C264.223 187.064 262.752 187.352 261.135 187.352C259.529 187.352 258.059 187.064 256.723 186.49C255.398 185.916 254.25 185.09 253.277 184.012C252.305 182.922 251.549 181.604 251.01 180.057C250.482 178.51 250.219 176.764 250.219 174.818V173.605C250.219 171.648 250.482 169.902 251.01 168.367C251.537 166.82 252.281 165.502 253.242 164.412C254.215 163.322 255.363 162.49 256.688 161.916C258.023 161.342 259.494 161.055 261.1 161.055C262.717 161.055 264.188 161.342 265.512 161.916C266.848 162.49 267.996 163.322 268.957 164.412C269.93 165.502 270.68 166.82 271.207 168.367C271.746 169.902 272.016 171.648 272.016 173.605ZM266.689 174.818V173.57C266.689 172.211 266.566 171.016 266.32 169.984C266.074 168.953 265.711 168.086 265.23 167.383C264.75 166.68 264.164 166.152 263.473 165.801C262.781 165.438 261.99 165.256 261.1 165.256C260.209 165.256 259.418 165.438 258.727 165.801C258.047 166.152 257.467 166.68 256.986 167.383C256.518 168.086 256.16 168.953 255.914 169.984C255.668 171.016 255.545 172.211 255.545 173.57V174.818C255.545 176.166 255.668 177.361 255.914 178.404C256.16 179.436 256.523 180.309 257.004 181.023C257.484 181.727 258.07 182.26 258.762 182.623C259.453 182.986 260.244 183.168 261.135 183.168C262.025 183.168 262.816 182.986 263.508 182.623C264.199 182.26 264.779 181.727 265.248 181.023C265.717 180.309 266.074 179.436 266.32 178.404C266.566 177.361 266.689 176.166 266.689 174.818ZM296.643 161.406V187H291.369L281.086 169.844V187H275.812V161.406H281.086L291.387 178.58V161.406H296.643Z" fill="#021112"/>
<defs>
<filter id="filter0_dd_537_4" x="0" y="0" width="358" height="358" filterUnits="userSpaceOnUse" color-interpolation-filters="sRGB">
<feFlood flood-opacity="0" result="BackgroundImageFix"/>
<feColorMatrix in="SourceAlpha" type="matrix" values="0 0 0 0 0 0 0 0 0 0 0 0 0 0 0 0 0 0 127 0" result="hardAlpha"/>
<feOffset dy="4"/>
<feGaussianBlur stdDeviation="2"/>
<feComposite in2="hardAlpha" operator="out"/>
<feColorMatrix type="matrix" values="0 0 0 0 0.0156863 0 0 0 0 0.407843 0 0 0 0 0.435294 0 0 0 0.25 0"/>
<feBlend mode="normal" in2="BackgroundImageFix" result="effect1_dropShadow_537_4"/>
<feColorMatrix in="SourceAlpha" type="matrix" values="0 0 0 0 0 0 0 0 0 0 0 0 0 0 0 0 0 0 127 0" result="hardAlpha"/>
<feOffset dy="4"/>
<feGaussianBlur stdDeviation="2"/>
<feComposite in2="hardAlpha" operator="out"/>
<feColorMatrix type="matrix" values="0 0 0 0 0 0 0 0 0 0 0 0 0 0 0 0 0 0 0.25 0"/>
<feBlend mode="normal" in2="effect1_dropShadow_537_4" result="effect2_dropShadow_537_4"/>
<feBlend mode="normal" in="SourceGraphic" in2="effect2_dropShadow_537_4" result="shape"/>
</filter>
</defs>
</svg>
