<svg width="358" height="358" viewBox="0 0 358 358" fill="none" xmlns="http://www.w3.org/2000/svg">
<g filter="url(#filter0_dd_545_2)">
<circle cx="179" cy="175" r="175" fill="white"/>
</g>
<path d="M179 116L304.574 149.75H53.4263L179 116Z" fill="#04686F"/>
<path d="M179 231L304.574 201H53.4263L179 231Z" fill="#04686F"/>
<path d="M176.767 249.633C173.867 250.367 171.067 252.933 170.167 255.667C169.7 257.067 169.5 257.267 167.567 258.1C160.267 261.3 154.7 267.6 151.967 275.833C151.233 278.033 151.2 278.767 151.067 288.967L150.967 299.767L148.4 302.3C144.067 306.567 142.033 310.9 141.767 316.333C141.6 319.433 141.6 319.533 142.5 320.333L143.4 321.167L155.133 321.267L166.9 321.367L167.667 323.267C168.167 324.433 169.1 325.8 170.133 326.833C174.033 330.7 179.667 331.667 184.6 329.267C186.867 328.2 189.4 325.533 190.333 323.267L191.1 321.367L202.867 321.267L214.6 321.167L215.467 320.367C216.233 319.633 216.333 319.3 216.333 317.2C216.333 311.833 214.133 306.8 209.967 302.567L207.4 299.967L207.267 289.567C207.1 279.433 207.1 279.1 206.233 276.233C204.633 271 201.967 266.6 198.367 263.233C196.267 261.267 192.033 258.533 189.933 257.767C188.5 257.267 188.3 257.067 187.833 255.633C187.133 253.6 185.3 251.5 183.3 250.467C181.533 249.6 178.5 249.2 176.767 249.633ZM184.167 262.5C185.267 262.767 187.433 263.633 189 264.4C192.767 266.233 196.267 269.7 198.233 273.5C200.667 278.233 200.733 278.733 200.9 291.767L201.067 303.333L202.4 304.433C206.7 307.833 208.7 310.467 209.6 313.733L209.933 315H179H148.067L148.4 313.733C149.3 310.467 151.3 307.833 155.6 304.433L156.933 303.333L157.1 291.767C157.267 278.733 157.333 278.233 159.767 273.5C161.733 269.7 165.233 266.233 169 264.4C170.567 263.633 172.667 262.8 173.667 262.533C176.133 261.867 181.667 261.867 184.167 262.5ZM183.633 322.2C182.467 323.467 180.567 324.333 179 324.333C177.433 324.333 175.533 323.467 174.367 322.2L173.567 321.333H179H184.433L183.633 322.2Z" fill="#04686F"/>
<path d="M77.1875 165.938V183H73.6719L66.8164 171.562V183H63.3008V165.938H66.8164L73.6836 177.387V165.938H77.1875ZM94.2617 174.07V174.879C94.2617 176.176 94.0859 177.34 93.7344 178.371C93.3828 179.402 92.8867 180.281 92.2461 181.008C91.6055 181.727 90.8398 182.277 89.9492 182.66C89.0664 183.043 88.0859 183.234 87.0078 183.234C85.9375 183.234 84.957 183.043 84.0664 182.66C83.1836 182.277 82.418 181.727 81.7695 181.008C81.1211 180.281 80.6172 179.402 80.2578 178.371C79.9062 177.34 79.7305 176.176 79.7305 174.879V174.07C79.7305 172.766 79.9062 171.602 80.2578 170.578C80.6094 169.547 81.1055 168.668 81.7461 167.941C82.3945 167.215 83.1602 166.66 84.043 166.277C84.9336 165.895 85.9141 165.703 86.9844 165.703C88.0625 165.703 89.043 165.895 89.9258 166.277C90.8164 166.66 91.582 167.215 92.2227 167.941C92.8711 168.668 93.3711 169.547 93.7227 170.578C94.082 171.602 94.2617 172.766 94.2617 174.07ZM90.7109 174.879V174.047C90.7109 173.141 90.6289 172.344 90.4648 171.656C90.3008 170.969 90.0586 170.391 89.7383 169.922C89.418 169.453 89.0273 169.102 88.5664 168.867C88.1055 168.625 87.5781 168.504 86.9844 168.504C86.3906 168.504 85.8633 168.625 85.4023 168.867C84.9492 169.102 84.5625 169.453 84.2422 169.922C83.9297 170.391 83.6914 170.969 83.5273 171.656C83.3633 172.344 83.2812 173.141 83.2812 174.047V174.879C83.2812 175.777 83.3633 176.574 83.5273 177.27C83.6914 177.957 83.9336 178.539 84.2539 179.016C84.5742 179.484 84.9648 179.84 85.4258 180.082C85.8867 180.324 86.4141 180.445 87.0078 180.445C87.6016 180.445 88.1289 180.324 88.5898 180.082C89.0508 179.84 89.4375 179.484 89.75 179.016C90.0625 178.539 90.3008 177.957 90.4648 177.27C90.6289 176.574 90.7109 175.777 90.7109 174.879ZM103.625 165.938V183H100.121V165.938H103.625ZM108.875 165.938V168.691H94.9531V165.938H108.875ZM114.617 165.938V183H111.113V165.938H114.617ZM121.426 165.938V183H117.91V165.938H121.426ZM128.223 173.227V175.969H120.465V173.227H128.223ZM129.043 165.938V168.691H120.465V165.938H129.043ZM134.82 165.938V183H131.316V165.938H134.82ZM148.004 177.34H151.508C151.438 178.488 151.121 179.508 150.559 180.398C150.004 181.289 149.227 181.984 148.227 182.484C147.234 182.984 146.039 183.234 144.641 183.234C143.547 183.234 142.566 183.047 141.699 182.672C140.832 182.289 140.09 181.742 139.473 181.031C138.863 180.32 138.398 179.461 138.078 178.453C137.758 177.445 137.598 176.316 137.598 175.066V173.883C137.598 172.633 137.762 171.504 138.09 170.496C138.426 169.48 138.902 168.617 139.52 167.906C140.145 167.195 140.891 166.648 141.758 166.266C142.625 165.883 143.594 165.691 144.664 165.691C146.086 165.691 147.285 165.949 148.262 166.465C149.246 166.98 150.008 167.691 150.547 168.598C151.094 169.504 151.422 170.535 151.531 171.691H148.016C147.977 171.004 147.84 170.422 147.605 169.945C147.371 169.461 147.016 169.098 146.539 168.855C146.07 168.605 145.445 168.48 144.664 168.48C144.078 168.48 143.566 168.59 143.129 168.809C142.691 169.027 142.324 169.359 142.027 169.805C141.73 170.25 141.508 170.812 141.359 171.492C141.219 172.164 141.148 172.953 141.148 173.859V175.066C141.148 175.949 141.215 176.727 141.348 177.398C141.48 178.062 141.684 178.625 141.957 179.086C142.238 179.539 142.598 179.883 143.035 180.117C143.48 180.344 144.016 180.457 144.641 180.457C145.375 180.457 145.98 180.34 146.457 180.105C146.934 179.871 147.297 179.523 147.547 179.062C147.805 178.602 147.957 178.027 148.004 177.34ZM160.754 168.855L156.113 183H152.375L158.715 165.938H161.094L160.754 168.855ZM164.609 183L159.957 168.855L159.582 165.938H161.984L168.359 183H164.609ZM164.398 176.648V179.402H155.387V176.648H164.398ZM176.117 165.938V183H172.613V165.938H176.117ZM181.367 165.938V168.691H167.445V165.938H181.367ZM187.109 165.938V183H183.605V165.938H187.109ZM204.418 174.07V174.879C204.418 176.176 204.242 177.34 203.891 178.371C203.539 179.402 203.043 180.281 202.402 181.008C201.762 181.727 200.996 182.277 200.105 182.66C199.223 183.043 198.242 183.234 197.164 183.234C196.094 183.234 195.113 183.043 194.223 182.66C193.34 182.277 192.574 181.727 191.926 181.008C191.277 180.281 190.773 179.402 190.414 178.371C190.062 177.34 189.887 176.176 189.887 174.879V174.07C189.887 172.766 190.062 171.602 190.414 170.578C190.766 169.547 191.262 168.668 191.902 167.941C192.551 167.215 193.316 166.66 194.199 166.277C195.09 165.895 196.07 165.703 197.141 165.703C198.219 165.703 199.199 165.895 200.082 166.277C200.973 166.66 201.738 167.215 202.379 167.941C203.027 168.668 203.527 169.547 203.879 170.578C204.238 171.602 204.418 172.766 204.418 174.07ZM200.867 174.879V174.047C200.867 173.141 200.785 172.344 200.621 171.656C200.457 170.969 200.215 170.391 199.895 169.922C199.574 169.453 199.184 169.102 198.723 168.867C198.262 168.625 197.734 168.504 197.141 168.504C196.547 168.504 196.02 168.625 195.559 168.867C195.105 169.102 194.719 169.453 194.398 169.922C194.086 170.391 193.848 170.969 193.684 171.656C193.52 172.344 193.438 173.141 193.438 174.047V174.879C193.438 175.777 193.52 176.574 193.684 177.27C193.848 177.957 194.09 178.539 194.41 179.016C194.73 179.484 195.121 179.84 195.582 180.082C196.043 180.324 196.57 180.445 197.164 180.445C197.758 180.445 198.285 180.324 198.746 180.082C199.207 179.84 199.594 179.484 199.906 179.016C200.219 178.539 200.457 177.957 200.621 177.27C200.785 176.574 200.867 175.777 200.867 174.879ZM220.836 165.938V183H217.32L210.465 171.562V183H206.949V165.938H210.465L217.332 177.387V165.938H220.836ZM241.32 180.258V183H232.238V180.258H241.32ZM233.387 165.938V183H229.871V165.938H233.387ZM240.137 172.887V175.559H232.238V172.887H240.137ZM241.309 165.938V168.691H232.238V165.938H241.309ZM244.977 165.938H247.953L252.336 178.465L256.719 165.938H259.695L253.531 183H251.141L244.977 165.938ZM243.371 165.938H246.336L246.875 178.148V183H243.371V165.938ZM258.336 165.938H261.312V183H257.797V178.148L258.336 165.938ZM271.543 168.855L266.902 183H263.164L269.504 165.938H271.883L271.543 168.855ZM275.398 183L270.746 168.855L270.371 165.938H272.773L279.148 183H275.398ZM275.188 176.648V179.402H266.176V176.648H275.188ZM284.469 165.938V183H280.965V165.938H284.469ZM298.73 180.258V183H290.141V180.258H298.73ZM291.277 165.938V183H287.762V165.938H291.277Z" fill="#021112"/>
<defs>
<filter id="filter0_dd_545_2" x="0" y="0" width="358" height="358" filterUnits="userSpaceOnUse" color-interpolation-filters="sRGB">
<feFlood flood-opacity="0" result="BackgroundImageFix"/>
<feColorMatrix in="SourceAlpha" type="matrix" values="0 0 0 0 0 0 0 0 0 0 0 0 0 0 0 0 0 0 127 0" result="hardAlpha"/>
<feOffset dy="4"/>
<feGaussianBlur stdDeviation="2"/>
<feComposite in2="hardAlpha" operator="out"/>
<feColorMatrix type="matrix" values="0 0 0 0 0.0156863 0 0 0 0 0.407843 0 0 0 0 0.435294 0 0 0 0.25 0"/>
<feBlend mode="normal" in2="BackgroundImageFix" result="effect1_dropShadow_545_2"/>
<feColorMatrix in="SourceAlpha" type="matrix" values="0 0 0 0 0 0 0 0 0 0 0 0 0 0 0 0 0 0 127 0" result="hardAlpha"/>
<feOffset dy="4"/>
<feGaussianBlur stdDeviation="2"/>
<feComposite in2="hardAlpha" operator="out"/>
<feColorMatrix type="matrix" values="0 0 0 0 0 0 0 0 0 0 0 0 0 0 0 0 0 0 0.25 0"/>
<feBlend mode="normal" in2="effect1_dropShadow_545_2" result="effect2_dropShadow_545_2"/>
<feBlend mode="normal" in="SourceGraphic" in2="effect2_dropShadow_545_2" result="shape"/>
</filter>
</defs>
</svg>
