<?xml version="1.0" standalone="no"?>
<!DOCTYPE svg PUBLIC "-//W3C//DTD SVG 20010904//EN"
 "http://www.w3.org/TR/2001/REC-SVG-20010904/DTD/svg10.dtd">
<svg version="1.0" xmlns="http://www.w3.org/2000/svg"
 width="1024.000000pt" height="1024.000000pt" viewBox="0 0 1024.000000 1024.000000"
 preserveAspectRatio="xMidYMid meet">

<g transform="translate(0.000000,1024.000000) scale(0.100000,-0.100000)"
fill="#999999" stroke="none">
<path d="M0 9125 l0 -1114 28 4 c24 4 294 35 306 35 3 0 17 21 33 47 41 70
280 399 388 533 52 65 95 124 95 132 0 7 -13 72 -29 143 -17 72 -37 164 -45
205 -22 112 -63 296 -106 475 -21 88 -44 189 -50 225 -6 36 -29 137 -51 225
-21 88 -41 170 -44 183 l-5 22 -260 0 -260 0 0 -1115z"/>
<path d="M571 10158 c10 -46 29 -121 43 -168 13 -47 34 -137 46 -200 12 -63
36 -176 55 -250 31 -127 79 -340 141 -615 41 -187 41 -188 3 -237 -19 -23 -58
-70 -88 -103 -29 -33 -74 -91 -99 -130 -24 -38 -89 -128 -142 -200 -54 -71
-112 -153 -129 -182 -22 -36 -40 -53 -59 -57 -27 -6 -302 -36 -328 -36 -11 0
-14 -31 -14 -165 l0 -165 22 4 c13 3 52 12 88 20 125 30 482 86 547 86 7 0 31
28 55 63 23 34 72 100 109 147 36 47 93 125 126 174 l61 90 -14 45 c-7 26 -25
100 -40 166 -14 66 -27 122 -28 125 0 3 3 7 8 10 12 7 33 -56 56 -168 11 -51
29 -115 41 -143 l22 -50 -26 -27 c-14 -15 -50 -65 -80 -112 -39 -62 -222 -304
-262 -348 -1 -1 -24 -5 -51 -8 -152 -18 -424 -57 -521 -76 l-113 -21 0 -89 c0
-86 1 -88 23 -84 51 11 168 25 253 31 50 3 106 10 125 15 80 24 182 41 291 50
65 5 124 12 132 17 18 10 106 107 211 233 44 52 118 133 164 179 l83 85 -6 66
c-4 36 -18 117 -32 180 -14 63 -36 174 -49 245 -14 72 -40 202 -60 290 -19 88
-58 264 -85 390 -28 127 -88 383 -134 570 -46 187 -87 361 -91 388 l-6 47 -66
0 c-63 0 -65 -1 -60 -22 4 -13 31 -117 61 -233 98 -371 230 -932 296 -1255 16
-80 40 -196 53 -258 14 -62 21 -115 16 -117 -9 -6 -15 14 -54 190 -15 66 -40
170 -56 230 -29 114 -65 268 -129 560 -61 276 -89 394 -115 492 -14 51 -39
161 -56 245 -17 84 -33 156 -35 160 -3 4 -31 8 -64 8 l-58 0 19 -82z"/>
<path d="M860 10142 c10 -55 43 -189 73 -298 75 -267 109 -407 156 -631 22
-103 51 -235 64 -293 14 -58 37 -170 52 -250 15 -80 46 -245 71 -367 44 -223
52 -293 34 -293 -18 0 -226 -208 -345 -345 -129 -148 -124 -145 -259 -145 -44
0 -146 -11 -226 -24 -80 -13 -206 -31 -280 -40 -74 -9 -150 -19 -168 -22 l-32
-5 0 -79 c0 -74 1 -79 22 -83 l23 -4 -22 -2 c-21 -1 -23 -6 -23 -57 l0 -57 62
8 c35 4 83 9 108 11 25 3 131 20 235 39 193 35 312 50 487 61 106 6 112 10
137 84 22 66 231 327 387 484 38 38 114 92 114 80 0 -7 -231 -262 -270 -299
-39 -36 -128 -151 -200 -258 -38 -58 -49 -82 -41 -90 25 -25 45 -22 -379 -63
-91 -8 -192 -19 -225 -24 -33 -5 -139 -20 -235 -34 -96 -14 -176 -26 -177 -26
-6 0 -2 -260 3 -260 4 0 45 9 93 20 47 11 163 31 256 45 94 13 217 33 275 45
100 20 347 49 400 47 14 -1 52 3 85 7 41 5 57 4 50 -3 -11 -11 -149 -34 -305
-51 -58 -6 -172 -24 -255 -40 -82 -16 -197 -34 -255 -40 -107 -11 -245 -34
-312 -51 l-38 -10 0 -2259 0 -2260 48 0 c26 0 42 4 35 8 -7 4 22 8 64 8 l77 0
-42 -13 c-23 -6 -74 -15 -112 -19 l-70 -7 0 -1143 0 -1144 565 0 565 0 1 28 1
27 7 -25 7 -25 4548 -3 4548 -2 -6 2702 c-3 1487 -8 2726 -10 2753 -4 41 -4
45 4 20 6 -19 8 250 5 715 -3 410 -6 1247 -7 1860 -1 872 -3 1083 -12 970 -5
-80 -12 -135 -14 -122 -2 14 -10 22 -23 22 -17 0 -19 7 -19 60 0 53 -2 60 -20
60 -18 0 -20 7 -20 60 l0 60 -40 0 -40 0 0 40 0 40 -40 0 -40 0 0 60 0 60 -40
0 c-33 0 -40 -3 -40 -20 0 -13 -7 -20 -20 -20 -13 0 -20 7 -20 20 0 13 -7 20
-20 20 -13 0 -20 -7 -20 -20 0 -13 -7 -20 -20 -20 -13 0 -20 7 -20 20 0 19 -7
20 -160 20 l-160 0 0 -40 c0 -33 -3 -40 -20 -40 -13 0 -20 -7 -20 -20 0 -13 7
-20 20 -20 17 0 20 -7 20 -40 0 -43 -6 -46 -87 -41 -27 2 -33 -1 -33 -18 0
-14 -6 -21 -20 -21 -11 0 -20 5 -20 10 0 6 -9 10 -20 10 -11 0 -20 5 -20 10 0
6 -9 10 -20 10 -13 0 -20 -7 -20 -20 0 -16 -7 -20 -30 -20 -16 0 -30 -4 -30
-9 0 -6 -15 -11 -32 -13 -29 -3 -33 -6 -30 -30 3 -27 1 -28 -37 -28 l-41 0 0
40 c0 33 -3 40 -20 40 -18 0 -20 7 -20 80 l0 80 -80 0 c-73 0 -80 -2 -80 -20
0 -13 -7 -20 -20 -20 -13 0 -20 7 -20 20 0 17 -7 20 -40 20 -33 0 -40 3 -40
20 0 13 7 20 20 20 19 0 20 7 20 140 l0 140 -40 0 -40 0 0 -40 0 -40 -80 0
c-73 0 -80 2 -80 20 0 18 -7 20 -80 20 -73 0 -80 2 -80 20 0 18 -7 20 -60 20
-53 0 -60 2 -60 20 0 17 -7 20 -40 20 -33 0 -40 -3 -40 -20 0 -17 -7 -20 -40
-20 l-40 0 0 80 0 80 -60 0 -60 0 0 40 0 40 -40 0 c-33 0 -40 3 -40 20 0 18
-7 20 -80 20 l-80 0 0 100 c0 93 -1 100 -20 100 -17 0 -20 7 -20 40 0 33 3 40
20 40 17 0 20 7 20 40 l0 40 -3320 0 c-2994 0 -3320 -2 -3320 -16 0 -17 79
-339 140 -569 55 -210 83 -328 135 -573 25 -116 58 -263 75 -325 16 -61 41
-173 55 -247 15 -74 48 -223 75 -330 58 -237 64 -267 50 -275 -5 -3 -12 0 -15
7 -15 38 -111 448 -145 613 -21 105 -54 253 -74 330 -19 77 -49 208 -65 290
-32 156 -89 393 -168 700 -25 99 -58 227 -73 285 l-26 105 -81 3 -81 3 18 -99z
m8513 -1004 c4 -10 8 -9 16 2 5 8 13 11 17 8 3 -4 -1 -14 -10 -23 -14 -15 -18
-15 -31 -1 -8 8 -15 17 -15 20 0 11 18 6 23 -6z m-4338 -413 c72 -8 181 -24
243 -36 62 -11 123 -17 135 -14 17 5 19 4 7 -4 -12 -9 -11 -11 7 -11 12 0 25
5 28 10 4 6 11 7 17 4 7 -4 6 -9 -2 -14 -19 -12 38 -22 60 -10 26 14 31 13 28
-7 -2 -13 12 -21 57 -35 33 -10 72 -20 88 -22 15 -1 30 -6 34 -9 12 -13 26 -7
15 6 -7 8 -6 16 4 25 8 7 14 8 14 2 0 -5 16 -10 35 -10 28 0 35 -4 35 -20 0
-23 -1 -23 113 -20 76 2 87 0 87 -15 0 -22 32 -54 38 -37 6 18 39 15 46 -4 8
-21 4 -25 -23 -27 -11 -1 -21 -5 -21 -10 0 -9 29 -4 66 10 14 5 16 2 11 -23
-5 -27 -4 -27 9 -9 10 14 14 15 15 4 0 -10 2 -10 6 -2 3 10 8 9 20 -3 13 -12
29 -14 78 -9 l62 7 13 -31 c7 -17 19 -31 26 -31 8 0 14 -4 14 -10 0 -5 9 -10
20 -10 13 0 20 -7 20 -20 0 -18 7 -20 60 -20 53 0 60 -2 60 -20 0 -17 7 -20
40 -20 33 0 40 -3 40 -20 0 -17 7 -20 40 -20 l40 0 0 -40 0 -40 40 0 c33 0 40
-3 40 -20 0 -17 7 -20 40 -20 33 0 40 -3 40 -20 0 -11 -7 -20 -15 -20 -8 0
-15 -4 -15 -10 0 -5 7 -10 15 -10 8 0 15 -4 15 -10 0 -5 9 -10 20 -10 13 0 20
-7 20 -20 0 -13 7 -20 20 -20 13 0 20 7 20 20 0 13 7 20 20 20 13 0 20 -7 20
-20 0 -13 7 -20 20 -20 13 0 20 -7 20 -20 0 -11 -7 -20 -15 -20 -8 0 -15 -9
-15 -20 0 -11 7 -20 15 -20 8 0 15 -9 15 -20 0 -13 7 -20 20 -20 11 0 20 -4
20 -10 0 -5 5 -10 11 -10 15 0 39 -26 39 -43 0 -8 7 -20 15 -27 8 -7 25 -30
37 -51 13 -24 29 -39 40 -39 23 0 68 -43 68 -65 0 -11 10 -15 35 -15 28 0 35
-4 35 -19 0 -11 6 -22 13 -25 10 -5 10 -7 0 -12 -20 -9 -16 -44 5 -44 11 0 21
-12 28 -35 9 -28 8 -35 -2 -35 -14 0 -30 -38 -20 -47 3 -4 6 0 6 8 0 13 30
-35 34 -56 1 -5 6 -21 10 -34 10 -28 -5 -41 -47 -41 -21 0 -32 8 -45 32 -30
54 -161 209 -291 341 -258 264 -523 459 -856 632 -169 88 -236 117 -412 180
-534 191 -1070 239 -1611 145 -242 -42 -278 -51 -467 -120 -205 -75 -277 -108
-429 -194 -334 -190 -581 -407 -810 -711 -132 -176 -194 -280 -304 -505 -94
-194 -153 -371 -216 -640 -54 -237 -72 -413 -63 -638 8 -202 32 -350 113 -702
l5 -25 -14 23 -13 23 -12 -26 c-7 -14 -10 -38 -7 -53 l5 -27 -11 25 c-6 14
-12 30 -13 35 -1 6 -4 15 -8 20 -8 14 -73 310 -90 410 -9 55 -13 180 -12 400
0 319 1 320 32 470 69 327 149 570 267 806 120 239 185 343 323 514 251 310
560 563 890 729 354 177 676 267 1112 309 106 11 468 5 585 -8z m552 -91 c-3
-3 -12 -4 -19 -1 -8 3 -5 6 6 6 11 1 17 -2 13 -5z m53 -9 c0 -9 -6 -12 -15 -9
-8 4 -15 10 -15 15 0 5 7 9 15 9 8 0 15 -7 15 -15z m-595 -71 c488 -55 966
-227 1374 -495 179 -117 247 -170 426 -330 237 -212 397 -393 382 -434 -3 -7
-36 -23 -73 -35 l-67 -23 -21 29 c-58 80 -235 267 -336 356 -164 143 -445 336
-655 448 -107 57 -346 160 -464 200 -158 52 -245 74 -462 112 -172 30 -199 33
-409 32 -234 0 -376 -16 -650 -74 -265 -57 -562 -179 -770 -318 -147 -98 -353
-266 -438 -357 -188 -202 -418 -572 -527 -850 -55 -141 -126 -411 -151 -580
-25 -170 -27 -620 -2 -751 21 -107 94 -355 141 -474 103 -262 333 -625 556
-880 152 -174 363 -375 516 -492 167 -127 414 -266 645 -363 193 -82 471 -157
703 -193 162 -24 578 -24 737 1 599 95 1044 304 1407 664 208 207 425 515 548
779 42 91 108 279 143 409 19 69 19 70 58 77 21 3 63 11 92 16 43 7 52 6 48
-5 -3 -7 -15 -51 -26 -96 -84 -349 -220 -640 -441 -948 -178 -247 -468 -520
-704 -660 -306 -183 -595 -293 -953 -364 -256 -51 -337 -59 -577 -52 -247 7
-358 21 -604 76 -243 55 -605 183 -720 255 -21 13 -82 47 -137 74 -281 142
-677 480 -995 852 -188 219 -395 584 -499 880 -54 153 -111 388 -129 530 -47
376 -2 790 129 1174 254 751 818 1362 1505 1634 227 90 372 128 607 162 296
42 507 46 793 14z m-104 -264 c135 -14 363 -54 487 -86 198 -51 517 -190 717
-311 96 -59 364 -244 432 -300 122 -98 357 -344 342 -357 -2 -2 -19 -8 -38
-14 l-33 -12 -117 109 c-168 157 -282 247 -475 375 -223 148 -285 183 -439
251 -315 139 -549 202 -877 236 -278 29 -701 -23 -995 -123 -326 -111 -686
-337 -889 -559 -68 -74 -203 -254 -272 -361 -57 -87 -197 -366 -215 -426 -12
-40 -110 -165 -145 -185 -16 -9 -16 -9 13 108 23 94 114 302 191 440 244 434
579 769 969 968 224 114 596 220 866 246 122 12 361 12 478 1z m-357 -234
c123 -37 187 -149 152 -268 -25 -85 -80 -128 -168 -128 -74 0 -122 16 -165 53
-71 63 -93 165 -52 251 44 95 121 126 233 92z m183 -22 c-3 -3 -12 -4 -19 -1
-8 3 -5 6 6 6 11 1 17 -2 13 -5z m634 -63 c24 -16 60 -32 79 -36 82 -17 123
-68 100 -124 -14 -35 -52 -50 -99 -40 -42 9 -57 24 -73 73 -7 22 -26 49 -41
60 -27 20 -38 21 -175 17 -265 -7 -353 -5 -363 10 -14 22 -11 29 15 39 26 10
267 26 422 29 84 1 94 -1 135 -28z m-1256 -101 c11 -18 -5 -48 -33 -59 -15 -6
-72 -17 -127 -26 -55 -8 -162 -29 -238 -47 -138 -32 -139 -32 -185 -80 -49
-51 -88 -62 -112 -33 -10 13 -8 19 16 37 16 13 47 39 69 59 62 56 111 76 261
104 77 14 166 32 199 39 73 17 142 19 150 6z m45 -6 c0 -2 -7 -4 -15 -4 -8 0
-15 4 -15 10 0 5 7 7 15 4 8 -4 15 -8 15 -10z m-2311 -34 c10 -5 21 -16 24
-23 4 -11 -6 -13 -47 -9 -48 4 -55 2 -74 -23 -52 -66 -4 -130 91 -122 52 4 59
-4 25 -27 -67 -47 -178 23 -178 111 0 42 17 79 44 91 27 14 92 15 115 2z
m7319 -28 c33 -69 64 -160 107 -317 25 -93 61 -217 79 -275 18 -58 38 -125 44
-150 24 -107 107 -415 143 -533 21 -71 43 -154 48 -185 25 -146 84 -381 157
-614 34 -110 66 -276 58 -301 -3 -12 -30 -53 -58 -92 -29 -38 -70 -101 -91
-140 -38 -70 -96 -156 -126 -186 -56 -57 -225 -301 -273 -396 -9 -18 -25 -37
-36 -43 -25 -13 -175 -43 -360 -71 -141 -21 -229 -39 -317 -65 -42 -11 -53
-19 -53 -35 0 -21 3 -21 93 -15 50 4 108 11 127 16 19 5 89 16 155 25 66 9
172 25 235 36 63 10 133 19 155 20 37 0 44 5 87 62 26 34 99 139 163 232 219
323 346 495 367 495 17 0 -37 -80 -179 -268 -60 -80 -193 -267 -277 -392 -77
-115 -109 -145 -161 -154 -22 -3 -112 -17 -200 -31 -88 -13 -234 -36 -325 -50
-91 -14 -183 -25 -206 -24 -25 2 -49 -4 -64 -14 -55 -38 -160 -4 -187 61 -41
99 46 206 127 155 31 -20 74 -89 64 -104 -7 -12 0 -11 43 6 53 20 218 51 348
65 107 11 294 51 341 72 23 11 49 44 94 123 28 48 160 232 211 295 20 25 72
103 114 174 43 71 97 154 121 183 53 64 53 76 18 222 -14 58 -34 142 -44 186
-10 44 -30 118 -45 165 -15 47 -40 137 -56 200 -64 253 -68 265 -140 498 -11
37 -25 87 -30 112 -5 25 -15 68 -23 95 -17 58 -38 136 -42 150 -2 6 -6 24 -9
40 -12 59 -27 112 -60 210 -19 55 -45 145 -59 200 -14 55 -42 147 -61 205 -38
110 -53 180 -39 180 5 0 15 -12 22 -28z m-153 -57 c9 -30 22 -67 30 -82 20
-41 127 -409 210 -723 18 -69 45 -161 59 -205 15 -44 35 -111 46 -150 11 -38
38 -133 60 -210 22 -77 58 -207 79 -290 21 -82 50 -188 64 -235 14 -47 40
-139 57 -206 37 -137 39 -122 -44 -252 -24 -37 -68 -112 -99 -167 -31 -55 -79
-131 -106 -170 -28 -38 -77 -110 -110 -160 -84 -125 -91 -135 -101 -135 -13 0
62 132 119 208 64 87 126 187 183 292 25 47 71 122 102 168 31 46 56 90 56 99
0 9 -22 90 -49 182 -27 91 -70 247 -95 345 -45 173 -81 294 -208 706 -34 107
-71 236 -83 285 -29 115 -109 387 -134 457 -35 95 -83 279 -77 294 10 25 25 6
41 -51z m-3830 9 c33 -16 54 -34 63 -53 18 -41 69 -88 109 -102 19 -6 59 -8
93 -5 67 7 75 1 65 -50 -8 -45 -27 -52 -84 -29 -239 93 -345 121 -501 130
-140 9 -140 9 -103 48 17 18 33 40 36 50 4 9 16 17 27 17 11 0 20 4 20 9 0 15
38 19 135 14 68 -3 102 -10 140 -29z m812 20 c8 -22 -17 -40 -86 -59 -31 -9
-84 -27 -118 -41 -56 -23 -68 -34 -115 -101 -87 -124 -91 -127 -116 -114 -12
6 -22 15 -22 20 0 4 27 45 60 91 33 46 63 95 66 109 10 51 18 56 100 63 43 3
104 15 134 26 70 25 89 26 97 6z m2872 -116 c18 -51 44 -127 58 -168 13 -41
29 -83 34 -92 5 -10 9 -27 9 -38 0 -12 9 -51 21 -88 71 -234 92 -300 100 -322
5 -14 21 -68 34 -120 53 -204 74 -280 113 -405 57 -186 97 -325 127 -440 14
-55 34 -131 45 -170 36 -130 34 -142 -76 -328 -35 -59 -64 -110 -64 -113 0 -3
-15 -26 -32 -52 -18 -26 -36 -53 -40 -62 -4 -10 -7 -11 -7 -2 -2 23 101 215
144 272 59 76 67 95 67 152 -1 52 -42 220 -112 453 -21 72 -44 150 -50 175 -6
25 -20 70 -30 100 -11 30 -40 127 -65 215 -102 350 -241 820 -290 976 -51 165
-40 210 14 57z m676 40 c8 -28 15 -57 15 -63 0 -6 14 -46 31 -90 17 -44 41
-127 54 -185 13 -58 29 -118 35 -135 7 -16 22 -66 35 -110 13 -44 37 -118 53
-165 17 -47 51 -164 76 -260 25 -96 55 -206 66 -245 34 -111 69 -239 110 -395
21 -80 58 -206 83 -280 46 -137 65 -210 53 -210 -10 0 -31 54 -70 181 -19 63
-51 166 -71 229 -20 63 -52 178 -71 255 -20 76 -46 170 -59 207 -13 37 -42
134 -65 215 -38 136 -106 360 -150 493 -10 30 -35 120 -55 200 -19 80 -39 156
-44 170 -5 14 -14 45 -21 70 -7 25 -16 54 -20 65 -21 58 -29 89 -24 96 12 20
24 6 39 -43z m-3442 -32 c3 -8 57 -53 119 -100 62 -46 183 -142 268 -213 147
-122 157 -133 192 -203 20 -41 37 -79 38 -83 0 -5 -48 37 -106 92 -59 56 -112
101 -118 101 -7 0 -79 59 -161 130 -82 72 -173 149 -204 173 l-55 42 -83 -2
c-46 -2 -83 1 -83 5 0 5 26 16 58 26 31 10 68 24 82 32 33 17 47 17 53 0z
m-1180 -61 c130 -17 198 -36 377 -106 114 -44 130 -54 185 -109 34 -34 82 -71
111 -84 38 -18 274 -167 303 -193 14 -11 -29 -25 -142 -45 -120 -20 -128 -23
-123 -42 17 -60 18 -103 2 -118 -9 -9 -16 -32 -16 -51 0 -29 39 -223 57 -282
3 -11 -22 6 -63 44 -191 176 -378 281 -592 333 -128 31 -282 27 -647 -16 -165
-19 -354 -40 -420 -46 -177 -16 -165 -10 -165 -78 -1 -31 -7 -68 -15 -82 -17
-29 -19 -107 -5 -146 9 -22 2 -19 -51 27 -33 30 -75 65 -92 78 -39 28 -157 85
-214 102 -24 6 -43 15 -43 19 0 12 67 118 122 191 30 41 71 97 90 124 47 65
122 136 227 214 129 96 362 199 457 203 38 2 49 -2 82 -35 33 -33 44 -37 87
-37 70 0 160 44 211 103 38 46 40 46 101 47 34 0 113 -7 176 -15z m1166 -173
c42 -38 137 -117 211 -176 243 -193 269 -215 280 -236 9 -17 8 -20 -11 -20
-33 0 -217 121 -317 209 -48 42 -134 112 -191 155 -120 91 -146 96 -231 50
-42 -23 -50 -32 -50 -56 0 -40 -28 -36 -46 8 -14 33 -13 38 7 72 13 20 24 39
26 41 7 9 89 19 167 20 l78 1 77 -68z m-2612 38 c59 -26 83 -69 83 -145 0 -70
-16 -100 -66 -121 -80 -33 -158 -7 -209 71 -21 33 -25 47 -20 79 7 50 41 111
69 124 34 17 97 13 143 -8z m-332 -67 c-2 -10 -4 -24 -4 -31 -1 -6 -43 -74
-94 -150 -107 -156 -226 -351 -246 -400 -8 -18 -30 -44 -50 -58 -86 -59 -81
-16 21 165 80 142 225 365 276 426 45 55 104 83 97 48z m-2265 -2 c-14 -4 -54
-10 -90 -14 l-65 -5 50 13 c55 14 151 20 105 6z m-210 -36 c-30 -8 -98 -19
-150 -25 -52 -6 -140 -17 -195 -26 -190 -28 -247 -35 -251 -31 -5 5 390 75
486 86 41 5 95 9 120 9 l45 0 -55 -13z m885 -25 c62 -38 86 -141 45 -193 -49
-61 -132 -56 -194 13 -44 49 -51 75 -32 122 32 75 112 101 181 58z m2115 -15
c0 -8 -4 -15 -10 -15 -5 0 -10 7 -10 15 0 8 5 15 10 15 6 0 10 -7 10 -15z
m2200 -25 c19 -11 31 -19 25 -20 -5 0 0 -6 12 -13 12 -6 50 -31 84 -55 34 -23
80 -47 101 -53 40 -10 43 -23 8 -32 -14 -4 -32 4 -53 22 -33 28 -82 62 -179
124 -32 21 -58 39 -58 42 0 10 26 4 60 -15z m-5817 -27 c-7 -2 -19 -2 -25 0
-7 3 -2 5 12 5 14 0 19 -2 13 -5z m7510 -34 c8 -11 24 -21 36 -22 16 -1 21 -6
17 -20 -3 -14 0 -16 15 -12 13 4 19 2 19 -9 0 -9 9 -16 21 -16 18 0 20 -5 18
-68 -1 -37 4 -85 10 -107 7 -22 17 -55 23 -73 5 -19 11 -61 12 -94 2 -38 9
-66 19 -79 9 -10 18 -29 21 -41 2 -13 9 -35 14 -49 6 -15 8 -30 5 -33 -3 -3 4
-3 17 -1 23 4 50 -15 50 -35 0 -6 4 -9 9 -6 5 3 11 -1 15 -9 3 -8 11 -15 19
-15 7 0 25 -12 39 -27 l26 -28 -43 -73 c-38 -65 -45 -71 -54 -55 -9 15 -10 12
-6 -17 16 -115 29 -173 50 -240 26 -82 65 -262 65 -304 0 -16 6 -26 15 -26 8
0 15 -4 15 -10 0 -5 6 -10 14 -10 29 0 37 -150 10 -188 -9 -13 -22 -21 -30
-18 -11 4 -14 -7 -14 -52 0 -31 -5 -95 -10 -142 -6 -47 -12 -119 -15 -160 -7
-101 -13 -134 -36 -210 -11 -36 -38 -132 -59 -215 -43 -164 -83 -279 -92 -269
-4 3 -7 -7 -6 -22 0 -34 -108 -258 -121 -250 -5 3 -18 -2 -29 -12 -23 -20 -39
-62 -23 -62 6 0 11 6 11 14 0 16 39 66 40 50 0 -5 -13 -31 -29 -56 -16 -25
-31 -54 -35 -64 -9 -29 -55 -83 -52 -62 1 10 10 24 19 30 23 18 40 69 27 82
-7 7 -10 3 -10 -11 0 -16 -5 -20 -20 -16 -15 4 -20 0 -20 -14 0 -11 -10 -28
-21 -39 -18 -16 -17 -10 9 43 41 80 81 138 95 138 7 0 13 9 15 20 2 11 7 29
12 40 128 298 188 492 251 805 43 216 34 529 -24 875 -51 302 -174 671 -304
913 -30 57 -68 118 -84 137 -16 18 -29 38 -29 44 0 19 80 171 90 171 5 0 15
-9 23 -21z m-4320 -26 c21 -25 14 -39 -118 -222 -112 -157 -143 -187 -170
-160 -13 13 -10 22 28 74 101 138 200 282 210 303 12 27 28 28 50 5z m4036
-125 c-17 -34 -42 -79 -55 -99 -26 -42 -137 -247 -264 -489 -105 -200 -169
-315 -221 -396 -21 -33 -57 -110 -79 -170 -46 -126 -99 -236 -135 -279 l-24
-30 -1 42 c0 23 -11 88 -24 145 -29 122 -56 276 -56 317 0 17 55 142 134 303
113 230 331 656 341 666 1 2 63 10 136 18 74 8 154 18 179 23 25 4 57 9 73 10
l27 1 -31 -62z m-5952 -75 c42 -20 90 -82 99 -129 8 -42 -33 -117 -76 -139
-92 -48 -210 37 -210 152 0 104 92 162 187 116z m4898 -283 c64 -266 99 -428
151 -690 41 -203 71 -339 97 -441 14 -53 37 -157 52 -230 14 -74 37 -185 51
-247 14 -63 24 -116 21 -118 -5 -5 -244 -50 -324 -61 -24 -3 -43 -2 -43 4 0 5
-21 108 -46 229 -65 311 -119 571 -160 774 -46 230 -102 477 -162 730 -28 113
-52 222 -55 242 l-6 37 57 12 c95 20 287 46 294 40 4 -3 37 -130 73 -281z
m191 213 c-9 -9 85 -83 105 -83 10 0 19 -7 19 -15 0 -9 9 -19 19 -23 19 -7 18
-11 -18 -97 -28 -69 -113 -226 -136 -253 -6 -7 -135 484 -135 513 0 8 23 4 75
-13 42 -14 73 -27 71 -29z m1027 -5 c210 -296 377 -910 377 -1383 0 -150 -5
-198 -21 -193 -4 2 -41 29 -82 61 l-74 58 -6 177 c-12 383 -100 725 -281 1093
l-48 97 22 43 c20 40 62 109 67 109 1 0 22 -28 46 -62z m-2480 -83 c297 -63
595 -269 739 -511 109 -185 147 -290 184 -508 24 -146 16 -332 -21 -446 -53
-164 -124 -278 -246 -396 -111 -106 -220 -172 -349 -212 -64 -20 -340 -75
-430 -86 -25 -4 -130 -18 -235 -33 -104 -14 -203 -27 -219 -27 -33 -1 -27 -19
-95 319 -18 88 -48 232 -66 320 -19 88 -71 347 -115 575 -45 228 -92 458 -104
510 -34 141 -80 399 -73 406 3 4 81 15 172 25 92 10 196 23 233 28 37 5 114
16 172 25 156 23 156 23 275 24 63 1 139 -5 178 -13z m-1613 -152 c126 -30
262 -111 364 -216 65 -67 146 -167 146 -180 0 -3 -57 -28 -127 -56 -71 -27
-152 -60 -182 -74 l-55 -24 -54 59 c-65 70 -115 101 -198 122 -123 32 -263 14
-344 -44 -48 -34 -93 -107 -98 -161 -6 -67 12 -112 65 -159 55 -48 117 -69
404 -135 378 -88 461 -123 584 -249 85 -86 123 -150 167 -281 35 -105 32 -261
-5 -365 -84 -230 -264 -390 -513 -455 -111 -29 -171 -34 -267 -24 -344 38
-557 175 -715 461 -18 32 -32 62 -32 68 0 19 76 60 214 114 77 31 140 54 140
53 8 -32 74 -132 113 -172 99 -102 235 -144 394 -124 135 17 211 58 259 142
48 84 38 190 -25 272 -54 71 -153 115 -395 174 -247 61 -365 98 -469 147 -77
36 -107 57 -166 118 -115 116 -158 224 -158 396 0 316 253 572 603 609 108 12
266 5 350 -16z m3937 -97 c115 -197 208 -564 227 -900 l5 -89 -47 44 c-26 24
-48 44 -49 45 -2 0 -17 81 -33 180 -39 229 -64 326 -144 558 -35 104 -63 194
-60 200 2 6 8 25 14 41 l12 30 19 -24 c11 -14 36 -52 56 -85z m1211 -80 c58
-30 102 -103 102 -171 0 -26 -9 -45 -34 -73 -33 -35 -38 -37 -96 -37 -62 0
-63 1 -105 48 -67 74 -72 146 -13 212 26 30 36 35 75 35 24 0 56 -6 71 -14z
m-338 -75 c56 -29 80 -73 80 -147 0 -51 -4 -68 -22 -89 -25 -28 -80 -42 -122
-31 -32 8 -93 61 -112 97 -29 57 -11 139 38 173 30 21 96 20 138 -3z m-1175
-211 c-3 -5 7 -16 23 -24 41 -21 108 -97 120 -137 5 -19 13 -51 15 -72 5 -34
4 -36 -13 -27 -10 5 -54 44 -99 86 -87 82 -94 99 -66 154 9 17 18 30 21 30 3
0 3 -4 -1 -10z m228 -150 c31 -104 57 -221 57 -252 -1 -47 -32 32 -41 105 -5
39 -20 108 -34 153 -27 89 -30 103 -16 89 5 -6 20 -48 34 -95z m-238 -127
c351 -347 745 -752 745 -766 0 -11 -20 -18 -72 -27 -40 -7 -128 -22 -196 -34
l-123 -23 -22 31 c-12 17 -122 134 -245 260 -123 126 -251 261 -285 300 -33
39 -71 82 -84 96 -13 14 -23 35 -23 48 0 13 23 74 50 136 28 62 50 119 50 128
0 47 24 29 205 -149z m-3136 101 c14 -15 73 -273 79 -342 l5 -63 -33 31 c-78
73 -280 176 -382 195 -21 4 -38 11 -38 16 0 5 3 8 8 7 43 -12 263 98 311 155
13 16 36 17 50 1z m-814 -40 c22 -4 46 -8 54 -10 8 -2 28 -10 45 -18 17 -8 45
-18 61 -22 17 -3 25 -8 18 -11 -11 -4 -173 36 -226 56 -30 12 -37 25 -9 18 9
-3 35 -9 57 -13z m232 -70 c-3 -3 -12 -4 -19 -1 -8 3 -5 6 6 6 11 1 17 -2 13
-5z m-897 -187 c10 -51 35 -177 56 -282 20 -104 47 -225 60 -269 16 -58 20
-82 12 -87 -14 -9 -79 -22 -83 -17 -2 2 -24 68 -48 148 -32 102 -50 184 -61
275 -19 152 -21 341 -5 382 l12 28 19 -43 c11 -24 28 -85 38 -135z m-843 -78
c35 -13 90 -64 110 -103 18 -35 12 -103 -12 -140 -40 -60 -157 -76 -217 -29
-76 60 -94 118 -60 196 33 74 104 105 179 76z m8023 -27 c0 -9 -59 -92 -66
-92 -5 0 6 30 24 68 15 29 42 45 42 24z m-8409 -59 c64 -34 91 -78 91 -145 0
-84 -60 -140 -152 -141 -126 -2 -213 145 -146 244 48 71 126 87 207 42z m8332
-33 c3 -11 2 -18 -2 -15 -4 2 -20 -23 -36 -56 -15 -33 -38 -73 -50 -87 -12
-15 -44 -63 -70 -107 -26 -44 -71 -114 -99 -155 -67 -96 -151 -228 -193 -305
-26 -47 -33 -55 -33 -35 0 14 6 36 14 50 7 14 38 70 68 125 30 55 82 136 115
180 33 44 85 123 116 175 31 52 63 104 71 115 48 63 56 74 56 82 0 9 29 53 34
53 2 0 6 -9 9 -20z m-2707 -293 c81 -103 120 -176 110 -204 -3 -7 0 -13 7 -13
9 0 8 -3 -1 -9 -8 -4 -13 -11 -12 -15 1 -4 -7 -34 -19 -66 -21 -57 -24 -60
-55 -60 -52 0 -70 20 -67 74 2 42 -49 274 -93 421 l-15 50 29 -35 c16 -19 68
-84 116 -143z m3159 106 c28 -58 65 -165 65 -191 0 -28 -20 -69 -70 -142 -43
-62 -158 -247 -246 -393 -32 -54 -72 -119 -88 -145 -16 -26 -71 -121 -123
-212 -52 -91 -108 -183 -123 -206 -16 -22 -49 -83 -74 -135 -25 -52 -83 -153
-129 -224 -47 -72 -102 -161 -123 -200 -21 -38 -59 -102 -86 -142 -26 -40 -48
-77 -48 -83 0 -5 -4 -10 -10 -10 -15 0 -14 2 45 100 31 50 83 141 117 203 33
62 87 153 118 202 31 50 70 115 85 145 15 30 66 120 113 200 46 80 118 201
158 270 69 118 114 192 237 390 84 133 213 353 220 374 9 25 -9 90 -38 135
-25 39 -42 101 -28 101 5 0 18 -17 28 -37z m-3965 -190 c0 -16 9 -51 19 -79
11 -28 27 -89 36 -135 9 -46 26 -115 37 -153 12 -38 24 -95 27 -125 l6 -56 35
3 c48 5 168 35 273 71 48 16 87 27 87 25 0 -11 -46 -94 -80 -144 -57 -84 -184
-224 -258 -286 -150 -125 -282 -197 -497 -273 -82 -29 -95 -31 -170 -25 -97 8
-165 -9 -238 -57 l-49 -32 -156 6 c-86 3 -200 13 -252 22 -162 27 -405 120
-541 207 -30 19 -82 48 -116 66 -89 45 -241 141 -277 174 l-31 29 29 22 c98
73 186 175 242 280 28 52 32 56 37 35 13 -53 39 -257 45 -352 l7 -101 40 2
c22 2 72 12 110 23 39 10 133 31 210 46 77 15 163 32 190 39 28 8 128 25 222
39 229 34 382 87 480 167 280 227 331 280 431 441 39 63 74 122 78 131 10 26
24 20 24 -10z m-3342 -14 c-16 -11 -48 -12 -48 -1 0 4 14 7 31 8 20 1 26 -2
17 -7z m4436 -64 c25 -25 -23 -141 -146 -357 -129 -227 -126 -222 -145 -206
-26 21 -8 72 75 210 44 73 105 186 136 251 31 64 58 117 60 117 3 0 11 -7 20
-15z m-5009 -203 c20 -51 33 -97 29 -104 -4 -6 -3 -8 3 -5 6 4 19 -15 31 -43
16 -37 17 -47 6 -43 -8 3 -14 14 -14 24 0 11 -23 43 -52 71 -29 28 -43 48 -32
44 14 -5 11 0 -8 16 -25 22 -56 103 -44 116 3 3 6 -1 6 -9 1 -10 4 -9 14 4 8
10 12 28 10 40 -4 21 -4 21 5 2 6 -11 26 -62 46 -113z m1295 88 c25 -7 59 -12
75 -12 l30 1 -25 -10 c-14 -6 -65 -11 -115 -12 -74 -1 -98 3 -135 21 -25 12
-38 20 -29 18 9 -2 22 0 30 5 17 12 109 6 169 -11z m3874 -19 c17 -18 16 -23
-21 -108 -52 -121 -272 -553 -294 -577 -17 -19 -39 16 -39 64 0 38 8 59 39
107 22 34 78 137 126 229 150 291 157 304 165 304 4 0 15 -9 24 -19z m236 -3
c0 -17 -85 -254 -126 -351 -95 -227 -274 -502 -462 -711 -154 -171 -265 -263
-447 -373 -210 -126 -381 -197 -643 -268 -241 -64 -298 -70 -667 -70 -419 1
-475 10 -872 141 -136 45 -431 184 -520 245 -50 35 -56 46 -13 24 68 -35 47
-7 -25 34 -63 36 -81 40 -45 10 35 -29 9 -15 -101 57 -53 34 -132 92 -175 129
-184 158 -438 426 -479 505 -15 30 -15 30 10 30 52 0 100 -33 243 -168 334
-317 464 -415 777 -587 175 -97 227 -119 434 -184 391 -124 749 -158 1111
-105 240 35 597 147 804 250 241 121 488 332 667 569 179 238 254 370 369 650
21 53 50 116 65 141 23 39 30 44 60 44 21 0 35 -5 35 -12z m-790 -131 c0 -7
-7 -22 -15 -33 -13 -17 -13 -16 -3 14 13 34 18 40 18 19z m3295 -90 c-50 -124
-110 -230 -216 -382 -56 -80 -162 -254 -203 -334 -134 -259 -201 -379 -266
-481 -72 -113 -110 -168 -110 -157 0 7 107 193 130 227 10 14 59 106 110 205
51 99 100 191 110 205 9 14 34 57 55 95 21 39 86 144 145 235 59 91 140 230
180 310 41 80 75 139 78 132 2 -8 -3 -32 -13 -55z m-7895 -2 c0 -14 -4 -25 -9
-25 -4 0 -6 11 -3 25 2 14 6 25 8 25 2 0 4 -11 4 -25z m6951 15 c5 0 9 -4 9
-10 0 -12 -56 -26 -160 -40 -47 -6 -152 -22 -235 -35 -161 -27 -205 -30 -205
-16 0 9 18 13 155 35 44 8 116 21 160 30 168 34 235 44 253 40 8 -2 18 -4 23
-4z m-6867 -86 c3 -8 2 -12 -4 -9 -6 3 -10 10 -10 16 0 14 7 11 14 -7z m-54
-41 c0 -22 -8 -14 -19 20 -10 29 -9 30 4 13 8 -11 15 -26 15 -33z m7959 -124
c-34 -68 -94 -180 -135 -249 -40 -70 -94 -171 -120 -226 -25 -54 -54 -110 -64
-124 -10 -14 -40 -66 -67 -115 -50 -90 -184 -321 -273 -470 -26 -44 -58 -100
-70 -125 -31 -63 -131 -212 -138 -206 -2 3 7 27 21 53 15 27 47 89 71 138 24
50 96 176 160 280 63 105 141 235 172 290 31 55 78 136 104 180 26 44 72 127
101 185 29 58 62 121 75 141 12 20 48 87 80 150 62 124 137 245 142 230 2 -5
-25 -65 -59 -132z m-7840 39 c12 -21 19 -38 14 -38 -11 0 -43 53 -43 71 0 15
0 14 29 -33z m-75 -4 c3 -8 2 -12 -4 -9 -6 3 -10 10 -10 16 0 14 7 11 14 -7z
m4519 2 c43 -17 93 -76 108 -125 23 -76 -16 -158 -84 -180 -39 -13 -114 -2
-151 22 -59 39 -90 196 -48 246 40 48 113 64 175 37z m-4374 -118 c22 -38 38
-68 34 -68 -3 0 2 -10 13 -22 10 -12 14 -18 7 -14 -13 7 -77 93 -79 105 0 3
-6 19 -12 34 -25 61 -17 52 37 -35z m1376 -98 c4 -6 48 -38 98 -72 92 -62 381
-277 467 -348 25 -20 101 -74 170 -120 69 -46 158 -115 197 -153 86 -83 96
-85 303 -87 156 0 176 -4 184 -33 12 -46 -11 -51 -196 -51 -157 1 -180 3 -245
26 -61 20 -78 32 -108 69 -38 49 -103 105 -265 224 -58 43 -130 99 -160 125
-59 50 -209 159 -355 258 -115 78 -191 145 -181 160 9 15 82 16 91 2z m-1290
-30 c3 -5 -1 -10 -10 -10 -9 0 -13 5 -10 10 3 6 8 10 10 10 2 0 7 -4 10 -10z
m25 -35 c19 -22 8 -25 -12 -3 -10 10 -14 18 -9 18 5 0 14 -7 21 -15z m982 -35
c42 -27 104 -72 139 -101 35 -28 96 -67 135 -86 39 -19 92 -52 119 -74 44 -36
230 -162 441 -297 45 -29 92 -64 105 -78 23 -24 23 -25 3 -44 -19 -19 -20 -19
-149 56 -148 85 -366 234 -455 312 -47 40 -69 52 -94 52 -42 0 -96 39 -161
116 -27 32 -70 79 -95 104 -105 104 -101 115 12 40z m4878 4 c33 -29 60 -82
60 -121 0 -38 -28 -89 -56 -102 -94 -42 -198 27 -198 132 0 44 4 53 37 83 48
45 109 48 157 8z m-1712 -105 c2 -18 -21 -59 -80 -144 -46 -66 -97 -141 -113
-168 -30 -48 -35 -50 -128 -71 -19 -5 -27 -12 -24 -21 7 -16 -13 -25 -54 -25
-16 0 -64 -13 -107 -30 -123 -47 -202 -61 -202 -36 0 25 75 64 175 90 200 54
264 102 419 314 49 68 94 121 100 119 6 -2 12 -15 14 -28z m2149 -41 c-18 -43
-278 -431 -284 -424 -8 7 26 65 138 236 123 186 153 229 157 225 2 -1 -3 -18
-11 -37z m-6141 -35 c-7 -7 -26 7 -26 19 0 6 6 6 15 -2 9 -7 13 -15 11 -17z
m6286 -55 c-50 -90 -149 -251 -225 -365 l-72 -108 -65 -6 c-36 -4 -85 -11
-109 -17 -25 -6 -39 -6 -34 -1 5 5 41 16 80 24 95 20 118 29 137 57 18 25 171
262 255 395 58 92 81 107 33 21z m262 -5 c-47 -83 -87 -146 -137 -215 -26 -37
-93 -140 -147 -230 -94 -153 -129 -195 -76 -90 35 69 168 283 229 367 28 41
74 108 100 151 51 83 76 97 31 17z m-6480 -35 c-8 -13 -24 -9 -24 6 0 7 -9 25
-20 39 -33 42 -22 45 15 3 19 -22 32 -43 29 -48z m4836 18 c0 -2 -8 -10 -17
-17 -16 -13 -17 -12 -4 4 13 16 21 21 21 13z m-4810 -36 c0 -5 -2 -10 -4 -10
-3 0 -8 5 -11 10 -3 6 -1 10 4 10 6 0 11 -4 11 -10z m2885 -49 c85 -37 131
-124 123 -231 -8 -110 -60 -170 -153 -178 -61 -5 -149 18 -189 49 -67 53 -94
179 -57 264 28 63 46 83 96 107 47 22 115 18 180 -11z m4324 -193 c-17 -35
-53 -97 -79 -138 -26 -41 -60 -97 -75 -125 -16 -27 -67 -108 -115 -180 -48
-71 -126 -197 -175 -280 -74 -128 -127 -206 -168 -250 -13 -14 103 207 181
345 36 63 102 171 146 240 45 69 106 164 136 212 51 82 166 238 176 238 2 0
-10 -28 -27 -62z m-1572 -214 c-3 -3 -12 -4 -19 -1 -8 3 -5 6 6 6 11 1 17 -2
13 -5z m-5207 -24 c0 -5 -5 -10 -11 -10 -5 0 -7 5 -4 10 3 6 8 10 11 10 2 0 4
-4 4 -10z m5043 -17 c-7 -2 -19 -2 -25 0 -7 3 -2 5 12 5 14 0 19 -2 13 -5z
m649 -240 c44 -30 102 -68 130 -84 56 -33 171 -129 163 -137 -2 -3 -42 22 -87
55 -46 32 -114 78 -153 102 -111 67 -207 129 -219 141 -28 28 97 -30 166 -77z
m-363 33 c20 -12 78 -49 130 -81 51 -32 114 -75 140 -95 25 -20 86 -60 135
-89 112 -66 156 -99 156 -118 0 -11 -9 -7 -32 12 -17 14 -67 44 -111 67 -88
44 -114 61 -197 128 -30 25 -97 69 -147 99 -93 54 -150 101 -123 101 8 0 30
-11 49 -24z m-6012 -156 c47 -28 65 -62 67 -126 1 -53 -1 -57 -41 -95 -38 -35
-48 -39 -94 -39 -48 0 -55 3 -95 43 -23 24 -46 55 -49 70 -12 45 4 98 40 134
29 29 39 33 87 33 35 0 64 -7 85 -20z m7253 10 c0 -24 -171 -335 -251 -458
-27 -41 -49 -82 -49 -91 0 -22 57 -245 125 -491 68 -247 185 -720 185 -751 0
-17 -3 -19 -14 -10 -12 10 -34 83 -51 166 -8 41 -38 156 -100 380 -123 442
-195 714 -195 733 0 11 7 22 15 26 18 6 64 77 134 206 128 233 201 338 201
290z m-1285 -121 c31 -26 116 -81 188 -122 73 -42 157 -91 187 -110 l56 -33
27 -95 c27 -96 243 -939 271 -1062 42 -179 -3 -54 -69 193 -24 91 -73 278
-110 415 -95 356 -137 508 -146 527 -5 9 -63 44 -129 77 -150 77 -288 169
-334 223 -20 23 -36 46 -36 51 0 11 12 2 95 -64z m-514 2 c62 -69 60 -153 -4
-207 -63 -53 -169 -14 -198 73 -17 53 -3 121 32 156 27 27 34 29 82 24 45 -4
56 -10 88 -46z m-6631 -12 c0 -7 11 -9 30 -5 17 3 30 1 30 -4 0 -6 -13 -10
-29 -10 -15 0 -40 -9 -55 -21 -47 -37 -27 -93 45 -129 21 -11 39 -23 39 -25 0
-3 -20 -5 -44 -5 -34 0 -52 7 -76 27 -30 25 -32 30 -27 77 4 42 10 55 38 78
36 30 49 35 49 17z m7871 -100 c6 -40 19 -95 29 -123 10 -28 51 -170 90 -316
39 -146 84 -312 100 -370 40 -144 115 -437 155 -605 18 -77 43 -174 54 -215
22 -80 26 -110 13 -110 -8 0 -90 288 -123 435 -12 50 -31 124 -44 165 -23 73
-37 126 -150 547 -30 111 -75 271 -100 356 -25 85 -48 175 -51 200 -6 45 2
124 12 114 3 -3 10 -38 15 -78z m-2905 46 c-85 -31 -94 -31 -36 0 25 12 59 23
75 24 22 0 11 -7 -39 -24z m-269 -21 c-3 -3 -12 -4 -19 -1 -8 3 -5 6 6 6 11 1
17 -2 13 -5z m-1490 -20 c-3 -3 -12 -4 -19 -1 -8 3 -5 6 6 6 11 1 17 -2 13 -5z
m1628 -4 c-27 -12 -43 -12 -25 0 8 5 22 9 30 9 10 0 8 -3 -5 -9z m-265 -10
c-8 -5 -26 -10 -40 -11 -24 -2 -24 -2 -2 -6 13 -3 22 -12 22 -23 0 -10 6 -20
13 -23 15 -5 -79 -26 -148 -33 -44 -5 -48 -4 -29 8 12 7 19 19 17 26 -3 7 4
12 15 12 11 0 22 -5 24 -12 3 -7 7 -6 11 5 6 15 -3 17 -71 18 l-77 1 85 14
c47 7 103 17 125 23 22 5 47 9 55 10 13 1 13 0 0 -9z m219 -4 c-2 -2 -17 -6
-34 -10 -22 -5 -26 -4 -15 4 14 9 59 15 49 6z m-1442 -12 c-3 -3 -12 -4 -19
-1 -8 3 -5 6 6 6 11 1 17 -2 13 -5z m-230 -10 c-3 -3 -12 -4 -19 -1 -8 3 -5 6
6 6 11 1 17 -2 13 -5z m4651 -129 c5 -22 35 -134 66 -250 30 -115 69 -264 86
-330 17 -66 48 -187 70 -270 94 -356 220 -855 220 -868 -1 -7 -8 4 -16 23 -32
71 -55 147 -65 215 -6 38 -22 99 -36 134 -14 34 -42 129 -64 210 -107 410
-203 767 -245 918 -30 106 -49 196 -52 245 -6 94 8 139 19 63 4 -27 11 -68 17
-90z m-4538 104 c9 -5 -2 -6 -25 -2 -22 3 -47 9 -55 14 -9 5 2 6 25 2 22 -3
47 -9 55 -14z m327 5 c-3 -3 -12 -4 -19 -1 -8 3 -5 6 6 6 11 1 17 -2 13 -5z
m703 -5 c-25 -4 -58 -7 -75 -7 -25 1 -24 2 10 8 22 4 56 7 75 7 31 0 30 0 -10
-8z m-622 -6 c-10 -2 -26 -2 -35 0 -10 3 -2 5 17 5 19 0 27 -2 18 -5z m99 -9
c-3 -3 -12 -4 -19 -1 -8 3 -5 6 6 6 11 1 17 -2 13 -5z m386 -1 c-13 -2 -35 -2
-50 0 -16 2 -5 4 22 4 28 0 40 -2 28 -4z m-3103 -38 c-34 -20 -82 -33 -245
-65 -77 -16 -221 -47 -320 -69 -240 -54 -475 -99 -555 -105 l-65 -5 92 23 c50
13 152 34 225 46 159 26 289 54 349 76 41 15 495 112 529 113 8 0 4 -6 -10
-14z m3123 -12 c-7 -2 -19 -2 -25 0 -7 3 -2 5 12 5 14 0 19 -2 13 -5z m-2526
-46 c125 -84 51 -251 -102 -232 -81 9 -135 6 -221 -15 -44 -10 -123 -26 -175
-35 -52 -8 -164 -29 -249 -45 -85 -16 -209 -38 -275 -49 -66 -11 -172 -31
-235 -45 -135 -30 -507 -101 -598 -115 -35 -6 -70 -15 -77 -21 -7 -6 -37 -46
-66 -88 -28 -42 -57 -81 -62 -87 -17 -17 34 66 83 133 25 35 45 68 45 72 0 16
14 20 166 45 85 14 224 39 309 55 85 16 162 29 170 28 8 -1 33 0 55 1 31 1 37
4 25 12 -12 8 -9 10 12 6 15 -2 26 -1 23 3 -4 6 165 41 300 61 39 5 120 21
180 34 61 13 148 29 195 35 178 23 314 56 307 73 -3 7 -10 39 -17 71 l-12 59
-56 -6 c-70 -8 -537 -96 -687 -130 -113 -26 -289 -60 -500 -97 -181 -32 -261
-47 -365 -69 -100 -22 -165 -27 -156 -12 3 4 31 11 62 15 31 3 116 22 189 41
73 19 170 39 216 45 118 14 163 23 339 63 167 38 419 88 540 107 41 6 129 22
195 35 66 13 147 27 180 30 33 4 66 12 72 17 27 21 89 38 123 32 19 -3 50 -15
67 -27z m4192 -74 c6 -21 17 -72 26 -114 8 -42 36 -150 61 -240 25 -90 54
-207 65 -259 12 -52 27 -105 35 -118 14 -21 13 -23 -11 -32 -15 -6 -44 -10
-65 -10 -35 0 -48 8 -112 68 -40 37 -75 69 -78 72 -3 3 -50 43 -105 90 -55 46
-126 108 -159 138 -64 58 -104 87 -111 80 -5 -5 58 -258 100 -402 14 -49 22
-93 18 -97 -13 -11 -115 -39 -124 -33 -11 6 -62 172 -88 284 -11 47 -31 126
-46 175 -14 50 -35 144 -46 209 -22 124 -20 135 21 136 44 0 264 -158 456
-329 69 -62 128 -110 131 -108 2 3 -14 70 -35 148 -22 79 -51 190 -64 247
l-24 102 36 9 c106 28 108 27 119 -16z m-847 -167 c10 -48 10 -59 -2 -66 -19
-11 -326 -70 -369 -70 -33 0 -33 0 -27 -37 17 -95 30 -143 40 -143 6 0 88 12
181 25 94 14 175 25 180 25 11 0 35 -75 35 -109 0 -23 -32 -31 -232 -57 -113
-15 -137 -21 -134 -34 3 -8 12 -50 22 -93 l18 -79 76 7 c41 4 126 15 188 26
148 25 160 25 166 -3 14 -68 16 -97 6 -103 -6 -4 -108 -24 -228 -45 -330 -58
-300 -55 -312 -28 -22 50 -180 712 -180 754 0 21 5 24 36 24 41 0 360 46 449
64 33 7 63 10 68 6 4 -3 13 -32 19 -64z m-5262 39 c0 -12 -70 -32 -130 -38
-87 -9 -58 8 46 27 44 8 80 15 82 15 1 1 2 -1 2 -4z m7531 -134 c38 -42 55
-95 43 -134 -8 -28 -64 -87 -82 -87 -8 0 -11 -7 -8 -17 24 -79 76 -285 76
-299 0 -26 -70 -162 -165 -323 l-78 -133 22 -96 c29 -125 51 -214 95 -387 20
-77 36 -149 35 -160 0 -35 -37 76 -69 210 -17 72 -51 199 -77 284 l-46 155 42
85 c24 47 78 149 122 227 50 89 79 151 79 170 -1 16 -15 82 -33 146 -32 117
-33 118 -78 146 -59 38 -82 74 -81 128 2 88 49 138 122 131 37 -4 51 -12 81
-46z m-3120 2 c97 -43 160 -130 167 -233 6 -87 -12 -137 -71 -195 -60 -59
-137 -89 -255 -101 l-73 -7 7 -56 c3 -31 15 -83 25 -116 21 -66 23 -91 10 -99
-4 -3 -33 -8 -63 -12 l-56 -6 -10 33 c-6 19 -23 95 -37 170 -14 75 -37 175
-50 223 -29 99 -85 340 -85 365 0 15 23 21 148 38 177 26 279 24 343 -4z
m2349 -13 c22 -14 5 -23 -58 -31 -84 -11 -158 -11 -146 0 9 9 132 38 169 40
11 0 27 -3 35 -9z m-5041 -45 c-8 -8 -254 -62 -454 -100 -104 -20 -305 -58
-445 -85 -140 -27 -304 -59 -365 -70 -60 -11 -143 -28 -183 -38 l-73 -18 -65
-84 c-132 -171 -261 -386 -251 -419 51 -178 110 -448 103 -475 -3 -10 -2 -33
1 -50 6 -26 7 -28 15 -11 5 13 6 8 2 -14 -4 -24 -3 -31 5 -26 8 4 11 -4 11
-27 -1 -18 1 -53 5 -78 8 -63 -48 156 -85 330 -32 153 -36 167 -78 297 l-26
82 30 43 c17 24 50 77 74 118 23 41 61 100 85 130 23 30 65 92 94 138 34 52
61 84 75 87 228 47 400 80 499 95 299 46 490 80 597 105 142 33 441 82 429 70z
m1834 -64 c108 -42 203 -138 249 -251 18 -44 22 -75 22 -160 0 -99 -1 -109
-32 -170 -18 -36 -44 -77 -57 -92 -41 -47 -133 -106 -187 -118 -182 -44 -409
79 -496 270 -49 106 -38 272 24 372 51 82 93 118 189 160 56 25 207 19 288
-11z m-1703 -66 c0 -17 -190 -70 -340 -95 -155 -26 -456 -84 -570 -110 -47
-11 -148 -29 -225 -40 -77 -11 -191 -30 -253 -42 -132 -25 -120 -14 -267 -233
-49 -71 -101 -146 -117 -166 -15 -20 -28 -46 -28 -57 0 -23 21 -110 45 -182 7
-25 26 -108 40 -185 15 -77 41 -198 60 -270 27 -104 58 -261 39 -192 -3 9 -9
15 -14 12 -4 -3 -6 5 -2 17 3 13 1 19 -5 15 -6 -4 -13 7 -16 26 -18 93 -125
556 -152 652 -14 49 -25 102 -25 116 0 18 49 98 145 240 l146 214 177 32 c97
18 233 42 302 52 69 11 159 27 200 36 41 9 113 23 160 31 47 8 135 25 195 39
61 13 171 33 245 45 74 12 160 27 190 35 65 16 70 17 70 10z m-158 -301 c14
-8 35 -26 47 -42 46 -65 39 -134 -20 -193 -36 -36 -43 -39 -95 -39 -48 0 -60
4 -84 29 -31 31 -65 128 -57 167 3 18 1 22 -8 14 -6 -5 -70 -21 -141 -34 -372
-70 -670 -126 -759 -141 l-100 -17 -92 -122 c-50 -66 -106 -145 -124 -175
l-33 -53 26 -77 c29 -81 89 -327 163 -663 25 -114 48 -215 51 -223 4 -8 1 -15
-6 -15 -6 0 -9 4 -6 9 4 5 2 11 -4 13 -12 4 -58 158 -95 320 -60 261 -137 572
-148 595 -6 13 -16 22 -23 19 -14 -5 58 108 183 286 l88 126 45 4 c56 6 357
59 550 98 80 16 209 38 285 50 77 12 145 25 151 28 6 4 23 15 38 26 51 36 109
39 168 10z m-184 -236 c-3 -7 -18 -15 -34 -20 -69 -18 -394 -80 -579 -109
-233 -36 -200 -15 -332 -218 l-87 -134 47 -186 c78 -308 143 -629 135 -666 -2
-11 -21 57 -42 150 -71 313 -165 667 -181 685 -16 18 -15 22 23 67 22 26 77
104 122 173 46 69 84 126 86 128 1 2 132 25 290 52 159 27 330 58 379 69 107
23 178 26 173 9z m-1776 -164 c39 -139 139 -610 135 -631 -2 -12 -1 -24 3 -25
15 -6 71 -258 62 -275 -8 -13 -11 -10 -21 18 -18 55 -80 321 -117 504 -19 94
-51 235 -70 314 -37 157 -40 175 -22 169 6 -2 20 -35 30 -74z m1465 -233 c100
-46 115 -161 33 -243 -31 -31 -45 -38 -76 -38 -131 0 -197 184 -98 271 39 34
81 37 141 10z m-1145 -547 c-7 -13 -10 -3 -9 37 0 53 0 53 9 17 6 -23 6 -43 0
-54z m17 -79 c-1 -29 -1 -29 -9 -5 -4 14 -8 34 -9 45 -1 16 1 17 9 5 5 -8 9
-28 9 -45z m25 -68 c-1 -15 3 -27 7 -27 5 0 6 -6 4 -12 -3 -7 1 -41 8 -75 8
-35 11 -63 8 -63 -4 0 -14 37 -24 83 -9 45 -20 93 -24 106 -4 18 -3 22 8 19 8
-3 14 -17 13 -31z m44 -247 l0 -25 -8 25 c-4 14 -8 34 -8 45 l-1 20 9 -20 c5
-11 8 -31 8 -45z"/>
<path d="M5835 8540 c11 -5 27 -9 35 -9 9 0 8 4 -5 9 -11 5 -27 9 -35 9 -9 0
-8 -4 5 -9z"/>
<path d="M5969 8529 c0 -2 -2 -11 -4 -20 -2 -12 2 -15 17 -11 11 2 16 8 11 11
-4 3 -11 10 -15 15 -5 5 -8 7 -9 5z"/>
<path d="M6001 8475 c9 -9 79 -35 79 -30 0 3 -16 13 -35 21 -34 14 -52 18 -44
9z"/>
<path d="M6200 8380 c8 -5 20 -10 25 -10 6 0 3 5 -5 10 -8 5 -19 10 -25 10 -5
0 -3 -5 5 -10z"/>
<path d="M4483 7965 c-33 -14 -63 -59 -63 -94 0 -29 55 -88 96 -101 98 -33
169 58 114 147 -31 51 -92 71 -147 48z"/>
<path d="M8380 4508 c-26 -28 -27 -89 -2 -111 21 -19 67 -23 77 -7 25 41 1
140 -35 140 -10 0 -28 -10 -40 -22z"/>
<path d="M5494 7339 c-9 -16 2 -22 21 -11 15 8 16 10 1 15 -8 3 -18 2 -22 -4z"/>
<path d="M3392 7398 c-22 -22 -9 -90 22 -110 39 -26 96 8 96 57 0 50 -84 87
-118 53z"/>
<path d="M1466 7287 c-35 -35 -33 -69 5 -101 38 -32 79 -33 107 -3 43 46 16
113 -50 123 -30 5 -41 2 -62 -19z"/>
<path d="M7670 4295 c0 -8 4 -15 10 -15 5 0 7 7 4 15 -4 8 -8 15 -10 15 -2 0
-4 -7 -4 -15z"/>
<path d="M1248 6943 c-52 -59 -7 -143 77 -143 28 0 65 43 65 75 0 13 -13 37
-29 54 -34 36 -88 43 -113 14z"/>
<path d="M4600 6459 c-58 -10 -122 -19 -142 -20 -34 -3 -38 -6 -38 -31 0 -15
11 -81 25 -145 14 -65 68 -332 121 -593 125 -627 122 -613 142 -605 10 4 87
16 172 26 264 34 391 80 491 179 131 130 182 285 159 490 -22 204 -86 343
-216 475 -220 221 -403 279 -714 224z m302 -270 c89 -31 149 -69 242 -152 86
-76 144 -159 197 -282 39 -91 43 -107 43 -180 -1 -103 -24 -175 -77 -233 -71
-77 -145 -102 -367 -127 -74 -8 -142 -15 -151 -15 -25 0 -22 -11 -159 660 -44
216 -65 339 -59 345 13 13 118 22 194 17 33 -3 95 -17 137 -33z"/>
<path d="M8428 6459 c-28 -16 -24 -84 7 -114 46 -47 118 -19 118 45 0 59 -73
100 -125 69z"/>
<path d="M8087 6385 c-28 -28 -22 -79 14 -109 17 -14 38 -26 48 -26 31 0 61
30 61 60 0 60 -86 113 -123 75z"/>
<path d="M1462 5613 c-20 -8 -44 -62 -37 -83 18 -57 115 -80 155 -37 56 59
-35 153 -118 120z"/>
<path d="M1039 5537 c-9 -7 -21 -22 -28 -35 -15 -28 1 -66 41 -95 23 -17 34
-19 65 -11 98 24 64 155 -40 154 -12 0 -29 -6 -38 -13z"/>
<path d="M2957 4285 c17 -22 41 -49 54 -60 l23 -20 -21 30 c-12 17 -36 44 -54
60 l-33 30 31 -40z"/>
<path d="M3400 3846 c0 -2 8 -10 18 -17 15 -13 16 -12 3 4 -13 16 -21 21 -21
13z"/>
<path d="M3440 3813 c0 -4 19 -21 43 -37 l42 -30 -25 28 c-27 30 -60 52 -60
39z"/>
<path d="M3580 3710 c8 -5 20 -10 25 -10 6 0 3 5 -5 10 -8 5 -19 10 -25 10 -5
0 -3 -5 5 -10z"/>
<path d="M6570 4470 c-29 -29 -25 -57 14 -96 40 -40 78 -44 100 -12 23 32 20
62 -10 97 -31 37 -74 41 -104 11z"/>
<path d="M8167 4192 c-24 -26 -21 -59 8 -87 42 -43 82 -28 87 33 4 59 -58 95
-95 54z"/>
<path d="M5376 3797 c-33 -33 -42 -90 -19 -130 24 -42 101 -81 142 -72 102 22
118 125 31 199 -43 35 -120 37 -154 3z"/>
<path d="M2256 3038 c-33 -47 -5 -123 53 -148 82 -34 138 75 72 141 -38 38
-101 41 -125 7z"/>
<path d="M7740 2950 c-57 -57 10 -168 76 -125 54 35 51 89 -8 125 -41 25 -43
25 -68 0z"/>
<path d="M2701 2664 c-20 -14 -22 -23 -18 -56 8 -59 31 -88 71 -88 45 0 75 27
82 72 5 30 2 41 -19 62 -31 31 -80 35 -116 10z"/>
<path d="M8337 2323 c-44 -50 -17 -123 47 -123 42 0 56 16 56 62 0 65 -64 103
-103 61z"/>
<path d="M5075 2230 c-22 -4 -43 -6 -47 -3 -5 2 -8 -2 -8 -9 0 -19 57 -258 62
-264 8 -8 170 27 206 44 20 9 44 29 55 44 39 52 15 156 -44 185 -26 14 -160
15 -224 3z"/>
<path d="M4248 2115 c-103 -33 -162 -141 -140 -256 46 -250 280 -352 437 -191
48 49 69 108 63 174 -6 57 -39 152 -64 184 -8 10 -12 13 -9 6 4 -8 -14 3 -40
23 -26 20 -61 43 -77 51 -43 22 -116 26 -170 9z"/>
<path d="M2490 1815 c-18 -22 -16 -90 4 -120 23 -35 77 -35 113 1 21 21 24 32
19 62 -3 20 -15 45 -27 55 -26 21 -92 23 -109 2z"/>
<path d="M2005 1170 c-23 -25 -22 -96 2 -122 23 -26 96 -25 123 2 29 29 27 90
-3 118 -31 29 -97 30 -122 2z"/>
<path d="M8000 10200 l0 -40 80 0 80 0 0 40 0 40 -80 0 -80 0 0 -40z"/>
<path d="M9200 9420 c0 -13 7 -20 20 -20 13 0 20 7 20 20 0 13 -7 20 -20 20
-13 0 -20 -7 -20 -20z"/>
<path d="M9120 9380 c0 -13 7 -20 20 -20 13 0 20 7 20 20 0 13 -7 20 -20 20
-13 0 -20 -7 -20 -20z"/>
<path d="M9000 9340 c0 -13 7 -20 20 -20 13 0 20 7 20 20 0 13 -7 20 -20 20
-13 0 -20 -7 -20 -20z"/>
<path d="M10223 9285 c0 -27 2 -38 4 -22 2 15 2 37 0 50 -2 12 -4 0 -4 -28z"/>
<path d="M10203 9070 c0 -30 2 -43 4 -27 2 15 2 39 0 55 -2 15 -4 2 -4 -28z"/>
</g>
</svg>
