<svg width="358" height="358" viewBox="0 0 358 358" fill="none" xmlns="http://www.w3.org/2000/svg">
<g filter="url(#filter0_dd_544_2)">
<circle cx="179" cy="175" r="175" fill="white"/>
</g>
<path d="M126.785 165.783L119.824 187H114.217L123.727 161.406H127.295L126.785 165.783ZM132.568 187L125.59 165.783L125.027 161.406H128.631L138.193 187H132.568ZM132.252 177.473V181.604H118.734V177.473H132.252ZM145.857 182.939L150.955 161.406H153.803L154.453 164.992L149.021 187H145.963L145.857 182.939ZM143.238 161.406L147.457 182.939L147.105 187H143.695L138.018 161.406H143.238ZM158.936 182.852L163.102 161.406H168.322L162.662 187H159.252L158.936 182.852ZM155.402 161.406L160.535 183.027L160.395 187H157.336L151.869 164.975L152.572 161.406H155.402ZM184.512 180.303C184.512 179.846 184.441 179.436 184.301 179.072C184.172 178.697 183.926 178.357 183.562 178.053C183.199 177.736 182.689 177.426 182.033 177.121C181.377 176.816 180.527 176.5 179.484 176.172C178.324 175.797 177.223 175.375 176.18 174.906C175.148 174.438 174.234 173.893 173.438 173.271C172.652 172.639 172.031 171.906 171.574 171.074C171.129 170.242 170.906 169.275 170.906 168.174C170.906 167.107 171.141 166.141 171.609 165.273C172.078 164.395 172.734 163.645 173.578 163.023C174.422 162.391 175.418 161.904 176.566 161.564C177.727 161.225 178.998 161.055 180.381 161.055C182.268 161.055 183.914 161.395 185.32 162.074C186.727 162.754 187.816 163.686 188.59 164.869C189.375 166.053 189.768 167.406 189.768 168.93H184.529C184.529 168.18 184.371 167.523 184.055 166.961C183.75 166.387 183.281 165.936 182.648 165.607C182.027 165.279 181.242 165.115 180.293 165.115C179.379 165.115 178.617 165.256 178.008 165.537C177.398 165.807 176.941 166.176 176.637 166.645C176.332 167.102 176.18 167.617 176.18 168.191C176.18 168.625 176.285 169.018 176.496 169.369C176.719 169.721 177.047 170.049 177.48 170.354C177.914 170.658 178.447 170.945 179.08 171.215C179.713 171.484 180.445 171.748 181.277 172.006C182.672 172.428 183.896 172.902 184.951 173.43C186.018 173.957 186.908 174.549 187.623 175.205C188.338 175.861 188.877 176.605 189.24 177.438C189.604 178.27 189.785 179.213 189.785 180.268C189.785 181.381 189.568 182.377 189.135 183.256C188.701 184.135 188.074 184.879 187.254 185.488C186.434 186.098 185.455 186.561 184.318 186.877C183.182 187.193 181.91 187.352 180.504 187.352C179.238 187.352 177.99 187.188 176.76 186.859C175.529 186.52 174.41 186.01 173.402 185.33C172.406 184.65 171.609 183.783 171.012 182.729C170.414 181.674 170.115 180.426 170.115 178.984H175.406C175.406 179.781 175.529 180.455 175.775 181.006C176.021 181.557 176.367 182.002 176.812 182.342C177.27 182.682 177.809 182.928 178.43 183.08C179.062 183.232 179.754 183.309 180.504 183.309C181.418 183.309 182.168 183.18 182.754 182.922C183.352 182.664 183.791 182.307 184.072 181.85C184.365 181.393 184.512 180.877 184.512 180.303ZM215.66 180.303C215.66 179.846 215.59 179.436 215.449 179.072C215.32 178.697 215.074 178.357 214.711 178.053C214.348 177.736 213.838 177.426 213.182 177.121C212.525 176.816 211.676 176.5 210.633 176.172C209.473 175.797 208.371 175.375 207.328 174.906C206.297 174.438 205.383 173.893 204.586 173.271C203.801 172.639 203.18 171.906 202.723 171.074C202.277 170.242 202.055 169.275 202.055 168.174C202.055 167.107 202.289 166.141 202.758 165.273C203.227 164.395 203.883 163.645 204.727 163.023C205.57 162.391 206.566 161.904 207.715 161.564C208.875 161.225 210.146 161.055 211.529 161.055C213.416 161.055 215.062 161.395 216.469 162.074C217.875 162.754 218.965 163.686 219.738 164.869C220.523 166.053 220.916 167.406 220.916 168.93H215.678C215.678 168.18 215.52 167.523 215.203 166.961C214.898 166.387 214.43 165.936 213.797 165.607C213.176 165.279 212.391 165.115 211.441 165.115C210.527 165.115 209.766 165.256 209.156 165.537C208.547 165.807 208.09 166.176 207.785 166.645C207.48 167.102 207.328 167.617 207.328 168.191C207.328 168.625 207.434 169.018 207.645 169.369C207.867 169.721 208.195 170.049 208.629 170.354C209.062 170.658 209.596 170.945 210.229 171.215C210.861 171.484 211.594 171.748 212.426 172.006C213.82 172.428 215.045 172.902 216.1 173.43C217.166 173.957 218.057 174.549 218.771 175.205C219.486 175.861 220.025 176.605 220.389 177.438C220.752 178.27 220.934 179.213 220.934 180.268C220.934 181.381 220.717 182.377 220.283 183.256C219.85 184.135 219.223 184.879 218.402 185.488C217.582 186.098 216.604 186.561 215.467 186.877C214.33 187.193 213.059 187.352 211.652 187.352C210.387 187.352 209.139 187.188 207.908 186.859C206.678 186.52 205.559 186.01 204.551 185.33C203.555 184.65 202.758 183.783 202.16 182.729C201.562 181.674 201.264 180.426 201.264 178.984H206.555C206.555 179.781 206.678 180.455 206.924 181.006C207.17 181.557 207.516 182.002 207.961 182.342C208.418 182.682 208.957 182.928 209.578 183.08C210.211 183.232 210.902 183.309 211.652 183.309C212.566 183.309 213.316 183.18 213.902 182.922C214.5 182.664 214.939 182.307 215.221 181.85C215.514 181.393 215.66 180.877 215.66 180.303ZM229.178 172.006H231.885C232.752 172.006 233.467 171.859 234.029 171.566C234.592 171.262 235.008 170.84 235.277 170.301C235.559 169.75 235.699 169.111 235.699 168.385C235.699 167.729 235.57 167.148 235.312 166.645C235.066 166.129 234.686 165.73 234.17 165.449C233.654 165.156 233.004 165.01 232.219 165.01C231.598 165.01 231.023 165.133 230.496 165.379C229.969 165.625 229.547 165.971 229.23 166.416C228.914 166.861 228.756 167.4 228.756 168.033H223.676C223.676 166.627 224.051 165.402 224.801 164.359C225.562 163.316 226.582 162.502 227.859 161.916C229.137 161.33 230.543 161.037 232.078 161.037C233.812 161.037 235.33 161.318 236.631 161.881C237.932 162.432 238.945 163.246 239.672 164.324C240.398 165.402 240.762 166.738 240.762 168.332C240.762 169.141 240.574 169.926 240.199 170.688C239.824 171.438 239.285 172.117 238.582 172.727C237.891 173.324 237.047 173.805 236.051 174.168C235.055 174.52 233.936 174.695 232.693 174.695H229.178V172.006ZM229.178 175.855V173.236H232.693C234.088 173.236 235.312 173.395 236.367 173.711C237.422 174.027 238.307 174.484 239.021 175.082C239.736 175.668 240.275 176.365 240.639 177.174C241.002 177.971 241.184 178.855 241.184 179.828C241.184 181.023 240.955 182.09 240.498 183.027C240.041 183.953 239.396 184.738 238.564 185.383C237.744 186.027 236.783 186.52 235.682 186.859C234.58 187.188 233.379 187.352 232.078 187.352C231 187.352 229.939 187.205 228.896 186.912C227.865 186.607 226.928 186.156 226.084 185.559C225.252 184.949 224.584 184.188 224.08 183.273C223.588 182.348 223.342 181.252 223.342 179.986H228.422C228.422 180.643 228.586 181.229 228.914 181.744C229.242 182.26 229.693 182.664 230.268 182.957C230.854 183.25 231.504 183.396 232.219 183.396C233.027 183.396 233.719 183.25 234.293 182.957C234.879 182.652 235.324 182.23 235.629 181.691C235.945 181.141 236.104 180.502 236.104 179.775C236.104 178.838 235.934 178.088 235.594 177.525C235.254 176.951 234.768 176.529 234.135 176.26C233.502 175.99 232.752 175.855 231.885 175.855H229.178Z" fill="#021112"/>
<path d="M179 116L304.574 149.75H53.4263L179 116Z" fill="#04686F"/>
<path d="M179 231L304.574 201H53.4263L179 231Z" fill="#04686F"/>
<path d="M225.988 285.037L208.211 259.483C207.464 258.408 206.467 257.53 205.306 256.923C204.145 256.317 202.855 256 201.545 256H155.897C154.587 256 153.297 256.317 152.136 256.923C150.975 257.53 149.979 258.408 149.231 259.483L131.454 285.037C130.508 286.398 130 288.016 130 289.674V312.841C130 317.326 133.635 320.961 138.12 320.961H219.322C223.807 320.961 227.442 317.326 227.442 312.841V289.674C227.442 288.016 226.935 286.398 225.988 285.037ZM155.897 264.12H201.545L214.726 283.067H142.716L155.897 264.12ZM219.322 312.841H138.12V291.187H219.322V312.841ZM213.909 302.014C213.909 305.004 211.485 307.428 208.495 307.428C205.505 307.428 203.082 305.004 203.082 302.014C203.082 299.025 205.505 296.601 208.495 296.601C211.485 296.601 213.909 299.025 213.909 302.014ZM197.668 302.014C197.668 305.004 195.244 307.428 192.255 307.428C189.265 307.428 186.841 305.004 186.841 302.014C186.841 299.025 189.265 296.601 192.255 296.601C195.244 296.601 197.668 299.025 197.668 302.014Z" fill="#04686F"/>
<defs>
<filter id="filter0_dd_544_2" x="0" y="0" width="358" height="358" filterUnits="userSpaceOnUse" color-interpolation-filters="sRGB">
<feFlood flood-opacity="0" result="BackgroundImageFix"/>
<feColorMatrix in="SourceAlpha" type="matrix" values="0 0 0 0 0 0 0 0 0 0 0 0 0 0 0 0 0 0 127 0" result="hardAlpha"/>
<feOffset dy="4"/>
<feGaussianBlur stdDeviation="2"/>
<feComposite in2="hardAlpha" operator="out"/>
<feColorMatrix type="matrix" values="0 0 0 0 0.0156863 0 0 0 0 0.407843 0 0 0 0 0.435294 0 0 0 0.25 0"/>
<feBlend mode="normal" in2="BackgroundImageFix" result="effect1_dropShadow_544_2"/>
<feColorMatrix in="SourceAlpha" type="matrix" values="0 0 0 0 0 0 0 0 0 0 0 0 0 0 0 0 0 0 127 0" result="hardAlpha"/>
<feOffset dy="4"/>
<feGaussianBlur stdDeviation="2"/>
<feComposite in2="hardAlpha" operator="out"/>
<feColorMatrix type="matrix" values="0 0 0 0 0 0 0 0 0 0 0 0 0 0 0 0 0 0 0.25 0"/>
<feBlend mode="normal" in2="effect1_dropShadow_544_2" result="effect2_dropShadow_544_2"/>
<feBlend mode="normal" in="SourceGraphic" in2="effect2_dropShadow_544_2" result="shape"/>
</filter>
</defs>
</svg>
